<?xml version="1.0" encoding="utf-8"?>
<!DOCTYPE svg PUBLIC "-//W3C//DTD SVG 1.0//EN" "http://www.w3.org/TR/2001/REC-SVG-20010904/DTD/svg10.dtd">
<svg version="1.0" xmlns="http://www.w3.org/2000/svg" width="470px" height="185px" viewBox="0 0 470 185" preserveAspectRatio="xMidYMid meet">
 <g fill="#f8f4f0">
  <path d="M51 183.5 c0 -1.3 23.9 -1.5 209.5 -1.5 185.6 0 209.5 0.2 209.5 1.5 0 1.3 -23.9 1.5 -209.5 1.5 -185.6 0 -209.5 -0.2 -209.5 -1.5z"/>
  <path d="M66 145.8 c-1.1 -1.8 -2.3 -4.4 -2.6 -5.8 -0.3 -1.4 -1 -3.4 -1.6 -4.5 -1.4 -2.4 -2.3 -27.1 -1.4 -34.9 l0.7 -5.6 4 0 3.9 0 0 -4.8 c0 -5.7 2.4 -14.3 5.3 -19.2 2.7 -4.6 13.4 -15.1 17.2 -17 1.7 -0.8 3.6 -2.1 4.3 -2.7 0.7 -0.7 3.1 -1.3 5.2 -1.3 l3.9 0 -1.2 -2.9 c-3.6 -8.5 -14.3 -17.9 -27.9 -24.6 -7.7 -3.7 -7.8 -3.8 -7.8 -7.6 l0 -3.9 28.3 0 28.3 0 2.4 2.7 c4.2 4.8 6 11.4 6 21.7 0 14.2 -4.5 23.6 -17.6 36.9 -6.1 6.2 -7 6.8 -10.3 6.5 -3.1 -0.3 -3.6 -0.7 -3.9 -3.2 -0.2 -1.6 0.1 -3.9 0.7 -5 3.5 -7 7.1 -19.9 3.9 -14.1 -0.6 1.1 -2.5 3.6 -4.3 5.5 -1.8 1.9 -4 5.7 -4.9 8.4 -1.6 4.5 -1.5 5.2 0 10 1 2.8 2.8 7.1 4.1 9.6 2.4 4.6 16.2 21.9 17.5 22 0.4 0 3.3 2.5 6.4 5.5 3.2 3 6.4 5.5 7.1 5.5 0.7 0 1.3 0.7 1.3 1.5 0 0.8 0.4 1.5 0.8 1.5 0.5 0 2 0.9 3.3 2.1 1.3 1.2 5.7 4.4 9.7 7.2 7.2 5 7.3 5.1 7 9.1 l-0.3 4.1 -42.8 0.3 -42.7 0.2 -2 -3.2z"/>
  <path d="M152.8 119.7 c-4.7 -1.5 -8.8 -5.2 -11.2 -10 -1.6 -3.1 -2 -6 -2 -15 -0.1 -10.3 0.1 -11.6 2.7 -16.9 4.8 -9.5 11.2 -12.3 25.4 -11.1 6.8 0.5 7.6 0.9 10.9 4.2 4.2 4.3 6.4 11.1 6.4 19.7 0 7.5 0.3 7.4 -16.2 7.4 -10.6 0 -11.6 0.2 -11.1 1.8 0.6 2.3 5 5.4 7.6 5.4 1.2 0 5.4 -0.3 9.3 -0.7 l7.1 -0.8 0.6 3.3 c1.1 5.1 0.8 9.7 -0.5 10.7 -4 3.1 -21.7 4.3 -29 2z m12.2 -37.2 c-0.7 -0.8 -1.8 -1.5 -2.5 -1.5 -0.7 0 -1.8 0.7 -2.5 1.5 -1.1 1.3 -0.7 1.5 2.5 1.5 3.2 0 3.6 -0.2 2.5 -1.5z"/>
  <path d="M244.8 120.1 c-10.3 -3.3 -14.1 -10.2 -14.2 -25.6 -0.1 -8.4 0.3 -10.9 2.3 -15.4 2.5 -5.9 3 -6.6 7.8 -9.9 2.7 -1.9 4.4 -2.2 14 -2.2 l11 0 3.5 3.3 c4.5 4 6.8 10.8 6.8 19.7 l0 6.7 -3.7 0.7 c-2.1 0.3 -8.4 0.6 -14 0.6 -9.1 0 -10.1 0.2 -9.6 1.8 0.7 2.5 5.2 5.5 8.2 5.4 1.4 0 5.6 -0.3 9.4 -0.7 l6.7 -0.8 0 7.2 c0 6.9 -0.1 7.2 -2.7 8.3 -3.5 1.4 -21.9 2 -25.5 0.9z m11.4 -37.6 c-1.6 -1.2 -2.6 -1.3 -4.2 -0.5 -2.9 1.6 -2.5 2 2.2 2 4.1 0 4.2 0 2 -1.5z"/>
  <path d="M319 120.1 c-7.6 -2.3 -13.1 -7.4 -15.1 -13.9 -0.6 -2 -0.9 -8.1 -0.7 -13.5 0.3 -8.8 0.1 -9.7 -1.5 -9.7 -3 0 -6.4 4.4 -7.6 9.9 -0.6 2.9 -1.1 10.1 -1.1 16.1 l0 11 -7.5 0 -7.5 0 0 -26.3 0 -26.4 13.1 -0.6 c7.2 -0.3 13.7 -0.3 14.5 0 0.9 0.3 1.4 2 1.4 4.5 l0 3.9 4.7 -3.8 4.6 -3.8 14.4 -0.3 c10.2 -0.3 14.8 0 15.9 0.8 1.4 1.3 2 10.3 0.8 13.4 -0.7 1.9 -9.9 2.2 -13.7 0.5 -4.6 -2.1 -12 3.5 -13.3 9.9 -1.2 6.2 4 13.2 9.9 13.2 3.1 0 3.7 -1.5 3.7 -9.6 l0 -6.4 7.5 0 7.5 0 0 14.4 0 14.3 -5.8 1.7 c-6 1.7 -19.7 2 -24.2 0.7z"/>
  <path d="M375.6 119.7 c-2.7 -0.7 -5.1 -1.8 -5.4 -2.5 -0.2 -0.8 -0.1 -4.3 0.3 -7.9 l0.7 -6.5 4.6 0.6 c2.6 0.3 6.7 0.8 9.2 1.2 3.9 0.6 4.3 0.5 3.2 -0.9 -0.7 -0.8 -3.9 -2.5 -7.1 -3.7 -3.2 -1.2 -7.2 -3.5 -8.7 -5.1 -2.7 -2.8 -2.9 -3.5 -2.9 -11.4 0 -8 0.2 -8.5 3 -11 5.1 -4.6 8.6 -5.5 20.5 -5.5 l11 0 0 7 0 7 -7.4 0 c-4.1 0 -7.8 0.4 -8.1 1 -0.3 0.5 2.7 2.6 6.7 4.5 4 2 8.1 4.6 9 5.8 l1.7 2.2 3.3 -3.1 c4.5 -4.3 8.8 -6.3 15.6 -7.3 5.5 -0.7 5.6 -0.8 3.1 -2 -2.1 -1.1 -3.2 -1 -6.4 0.3 -2 0.9 -5.7 1.6 -8.2 1.6 l-4.4 0 0.3 -7.7 c0.4 -9.4 -0.3 -9.1 18.5 -9.2 l13.1 -0.1 3.6 4.2 3.6 4.2 0 22.3 0 22.4 -8.2 0 c-4.6 0 -11.6 0.2 -15.5 0.5 -9.1 0.8 -11.9 0.1 -15.4 -3.7 -2.7 -2.9 -3 -3 -4.6 -1.3 -0.9 0.9 -3.2 2.3 -5.1 3.1 -4.6 1.9 -17.7 2.5 -23.6 1z m54.4 -20.7 c0 -1.9 -3.1 -1 -5.6 1.5 -2.2 2.2 -2.4 2.8 -1.3 4.1 1.2 1.4 1.6 1.3 4.1 -1.5 1.5 -1.7 2.8 -3.6 2.8 -4.1z"/>
  <path d="M186.7 119.3 c-0.4 -0.3 -0.7 -12.3 -0.7 -26.5 l0 -25.8 7.5 0 c5.2 0 7.5 0.4 7.5 1.2 0 0.9 0.3 0.9 1.2 0 0.8 -0.8 4.8 -1.2 11.4 -1.2 10.2 0 10.2 0 12.8 3.1 l2.6 3.1 0 23.4 0 23.4 -7.4 0 c-5 0 -7.6 -0.4 -7.9 -1.2 -0.3 -0.7 -0.2 -7.6 0.1 -15.3 0.4 -12.1 0.2 -14.6 -1.3 -17.8 -1.6 -3.5 -1.9 -3.7 -3.9 -2.4 -1.1 0.8 -3.1 3.2 -4.3 5.3 -2 3.5 -2.3 5.3 -2.3 17.7 l0 13.7 -7.3 0 c-4.1 0 -7.7 -0.3 -8 -0.7z"/>
  <path d="M351.7 119.3 c-0.4 -0.3 -0.7 -12.3 -0.7 -26.5 l0 -25.8 8.5 0 8.5 0 -0.1 25.3 c-0.1 15.5 -0.5 25.7 -1.1 26.5 -1.1 1.3 -13.9 1.8 -15.1 0.5z"/>
 </g>
 <g fill="#f8ae6f">
  <path d="M0 92.7 l0 -92.7 235 0 235 0 0 92 0 92 -194.7 0 c-107.2 0 -212.9 0.3 -235 0.7 l-40.3 0.6 0 -92.6z m101.8 51.6 c0.2 -0.7 -0.1 -1.3 -0.7 -1.3 -2.4 0 -13.8 -9 -20.2 -15.9 -7 -7.6 -13.9 -19.6 -13.9 -24.2 0 -3 -1.6 -5.6 -2.7 -4.5 -1.3 1.3 -1 31 0.4 33.7 0.6 1.3 1.4 3.5 1.7 4.9 0.3 1.4 1.5 4 2.6 5.8 l2 3.3 15.2 -0.3 c11 -0.2 15.2 -0.6 15.6 -1.5z m48.9 0.1 c0.2 -0.6 -2.9 -3.4 -6.9 -6.2 -4 -2.7 -8.4 -5.9 -9.7 -7.1 -1.3 -1.2 -2.8 -2.1 -3.3 -2.1 -0.4 0 -0.8 -0.7 -0.8 -1.5 0 -0.8 -0.6 -1.5 -1.3 -1.5 -0.7 0 -3.9 -2.5 -7.1 -5.5 -3.1 -3 -6 -5.5 -6.4 -5.5 -1.3 -0.1 -15.1 -17.4 -17.5 -22 -7.8 -14.8 -7.4 -24.7 1.5 -34.7 2.1 -2.4 3.8 -4.5 3.8 -4.8 0 -1 -2.9 -0.5 -4.2 0.8 -0.7 0.6 -2.6 1.9 -4.3 2.7 -3.8 1.9 -14.5 12.4 -17.2 17 -2.8 4.6 -5.3 13.4 -5.3 18.3 0 9 6.8 25.4 14.1 33.8 4.6 5.3 13.1 14 16.7 16.9 l3.7 3 21.9 -0.2 c14.9 -0.2 22.1 -0.7 22.3 -1.4z m22.1 -27.5 c6.2 -1.5 7.4 -2.7 6.6 -6.8 -0.7 -3.2 -0.7 -3.2 -4.8 -2.4 -11.8 2.3 -18.4 0.1 -20.5 -6.8 -1.9 -6.3 -1.3 -6.6 10.4 -6.1 5.8 0.2 12.1 0.1 14 -0.2 3.2 -0.6 3.5 -1 3.5 -4 0 -5.8 -2.8 -12.9 -6.6 -16.8 -3.2 -3.4 -4.2 -3.8 -8.8 -3.9 -12.4 -0.3 -16.8 2 -21.3 10.9 -2.4 5 -2.8 6.7 -2.7 14 0.2 9.3 1.9 13.9 6.7 18.2 5.3 4.6 14.2 6.1 23.5 3.9z m94.5 -0.8 c2.3 -0.9 2.7 -1.6 2.7 -5.2 l0 -4.1 -3.2 0.6 c-10.4 2.2 -14.7 1.9 -18.6 -1.4 -2.5 -2.1 -4.8 -10.9 -2.8 -11.1 0.6 -0.1 4.9 0 9.5 0.1 4.6 0.1 10.5 -0.1 13.1 -0.5 l4.7 -0.7 -0.2 -4.6 c-0.3 -7.6 -2.5 -13 -6.4 -16.3 -3.3 -2.7 -4.2 -2.9 -11.4 -2.9 -7.8 0 -10.7 1 -15.3 5.5 -3.1 3 -5.6 11.2 -5.6 18.5 -0.1 12.7 4.3 19.9 14 23.1 3.4 1.1 15.8 0.5 19.5 -1z m72.9 0.3 l5.8 -1.7 0 -11.3 0 -11.4 -4.5 0 -4.5 0 0 6.8 c0 8.7 -0.7 9.6 -6.8 9.6 -9.2 0 -13.8 -5.7 -13 -16.2 0.5 -6.8 2.7 -10.3 8 -12.8 3.5 -1.6 6.1 -1.6 14.7 0.2 3.8 0.7 5.1 -0.4 5.1 -4.7 0 -4.5 -1.9 -5.1 -14.3 -4.7 -11.1 0.3 -11.4 0.3 -15.6 3.7 -10.4 8.3 -12.5 27.7 -3.8 36.9 6.2 6.7 17.3 8.8 28.9 5.6z m57.4 -1.5 c4.8 -2.3 6.9 -5.7 6.9 -11.3 0 -5.8 -3.1 -9.3 -12.3 -14.1 -6.3 -3.3 -7.8 -4.5 -8 -6.6 -0.5 -3.9 1.9 -5.1 9.8 -5.1 l7 0.1 0 -4 0 -3.9 -8 0 c-8.7 0 -12.7 1.2 -17.4 5.4 -2.5 2.2 -2.9 3.3 -3 8.1 0 4.7 0.4 5.8 2.9 8.5 1.6 1.6 3.8 3.3 4.9 3.6 1.2 0.4 4.5 1.7 7.4 3.1 4.5 2.1 5.2 2.8 5.2 5.4 0 5.1 -5.5 5.9 -16.7 2.4 -2.4 -0.8 -2.3 -1 -2.7 7.2 -0.1 1.3 1.2 2.1 4.9 3 6.2 1.4 13.7 0.7 19.1 -1.8z m33.4 0.3 c3.6 -2.7 3.6 -2.7 4.3 -0.2 0.4 1.6 1.4 2 5.1 2 l4.6 0 0 -19.3 0 -19.3 -3.6 -4.2 -3.6 -4.2 -10.1 0.1 c-14.4 0.1 -15.1 0.4 -15.5 6.2 -0.3 5.3 0.3 5.6 6.1 3.2 7.9 -3.3 16.3 -0.7 15.5 4.8 -0.3 1.9 -1.2 2.3 -6 2.9 -6.7 0.8 -11 2.8 -15.5 7.1 -3.1 2.9 -3.3 3.6 -3.3 9.4 0 7 1.6 10.4 5.9 12.9 3.7 2.1 12.4 1.3 16.1 -1.4z m-232 -11.7 c0 -11.6 0.3 -14.1 2 -17.5 2.3 -4.5 5.6 -7 9.5 -7.3 2.2 -0.2 3.1 0.5 4.6 3.3 1.7 3 2 5.4 1.9 18 -0.1 8 -0.1 15.1 -0.1 15.8 0.1 0.8 1.7 1.2 4.6 1.2 l4.5 0 0 -20.4 0 -20.4 -2.6 -3.1 c-2.4 -2.9 -3 -3.1 -9.5 -3.1 -7 0 -9.5 0.9 -13.3 4.5 l-2.1 2 -0.3 -3.2 c-0.3 -3.2 -0.5 -3.3 -4.8 -3.3 l-4.4 0 0 22.8 c0 12.6 0.3 23.2 0.7 23.5 0.3 0.4 2.6 0.7 5 0.7 l4.3 0 0 -13.5z m91.2 -0.2 c0.5 -16.1 1.9 -20.6 7 -22.7 1.7 -0.8 3.7 -1.2 4.4 -0.9 1.6 0.6 2.6 -8.9 1.1 -9.9 -1.6 -1 -5.7 0.1 -8.9 2.3 -3.4 2.4 -3.8 2.4 -3.8 -0.1 0 -1.7 -0.7 -2 -4.5 -2 l-4.5 0 0 23.5 0 23.5 4.4 0 4.4 0 0.4 -13.7z m73.5 12.5 c0.4 -0.7 0.9 -11.3 1.1 -23.5 l0.3 -22.3 -5.6 0 -5.5 0 0 22.8 c0 12.6 0.3 23.2 0.7 23.5 1.1 1.2 8.2 0.7 9 -0.5z m-250 -47.8 c6.5 -6.6 11.2 -13.7 14.1 -20.9 4 -9.8 2.3 -23.4 -3.8 -30.4 l-2.4 -2.7 -25.3 0 c-13.9 0 -25.3 0.4 -25.3 0.9 0 0.5 3.5 2.6 7.8 4.6 18.8 9.3 29.4 21.3 30.9 35.2 0.4 4 0 6.7 -1.7 11.5 -1.3 3.5 -2.7 6.8 -3.2 7.4 -1.2 1.7 0.3 2.5 2 1.1 0.9 -0.6 4 -3.7 6.9 -6.7z"/>
  <path d="M154 85.1 c0 -1.1 1.1 -3.2 2.4 -4.7 3.3 -3.9 8.9 -3.9 12.3 0 4.1 4.9 2.9 6.1 -6.5 6.4 -7.6 0.3 -8.2 0.1 -8.2 -1.7z"/>
  <path d="M245.4 84.3 c1 -3.9 4.2 -6.3 8.5 -6.3 4.6 0.1 6.9 1.9 7.7 5.9 l0.7 3.1 -8.8 0 -8.7 0 0.6 -2.7z"/>
  <path d="M419.4 106.4 c-1.6 -2.4 -1.6 -2.8 0 -6 1.8 -3.8 6.2 -6.2 10.8 -5.9 3.7 0.2 4.2 0.8 3.4 4.9 -1.6 8.5 -10.4 12.9 -14.2 7z"/>
 </g>
</svg>