<?xml version="1.0" encoding="utf-8"?>
<!DOCTYPE svg PUBLIC "-//W3C//DTD SVG 1.0//EN" "http://www.w3.org/TR/2001/REC-SVG-20010904/DTD/svg10.dtd">
<svg version="1.0" xmlns="http://www.w3.org/2000/svg" width="282px" height="114px" viewBox="0 0 282 114" preserveAspectRatio="xMidYMid meet">
 <g fill="#05080a">
  <path d="M65.25 69.03 c-0.47 -0.13 -0.65 -0.35 -0.70 -0.98 -0.08 -0.65 0.10 -1.02 0.80 -1.83 0.50 -0.52 0.90 -1.08 0.90 -1.23 0 -0.13 0.47 -0.55 1.05 -0.90 0.85 -0.55 1.25 -0.63 2.25 -0.55 l1.20 0.13 0 -1.05 c0 -0.57 0.08 -1.13 0.17 -1.23 0.10 -0.10 0.15 -0.68 0.10 -1.27 l-0.08 -1.13 1.30 0 c0.70 0 1.50 0.13 1.77 0.25 0.57 0.32 0.63 1.40 0.10 2.40 -0.20 0.40 -0.38 0.95 -0.38 1.20 0 0.70 -0.75 1.13 -1.95 1.15 l-1.10 0 0.17 1.50 c0.15 1.40 0.13 1.60 -0.47 2.47 -0.52 0.73 -0.90 1 -1.60 1.13 -1.15 0.17 -2.72 0.15 -3.55 -0.08z"/>
  <path d="M62.58 59.08 c-0.50 -0.10 -0.57 -0.25 -0.57 -1.40 0.03 -1.27 0.03 -1.33 1.27 -2.15 1.38 -0.93 3.60 -1.38 3.97 -0.77 0.15 0.22 0.32 0.17 0.73 -0.22 0.28 -0.28 0.75 -0.52 1.02 -0.52 0.40 0 0.50 -0.17 0.50 -0.88 0 -1.95 1.58 -3.13 4.30 -3.20 l1.83 -0.05 0.08 0.82 c0.08 0.63 -0.08 0.98 -0.63 1.50 -0.38 0.40 -1.02 1.13 -1.40 1.63 -0.47 0.63 -0.90 0.93 -1.30 0.93 -0.50 0 -0.63 0.13 -0.63 0.68 0 0.43 -0.25 0.90 -0.68 1.27 -0.60 0.50 -0.93 0.57 -2.33 0.52 -1.80 -0.10 -2.25 0.08 -2.25 0.77 0 1.10 -1.60 1.52 -3.92 1.08z"/>
 </g>
 <g fill="#0e0f16">
  <path d="M69.63 69.53 c-0.28 -0.13 -1.20 -0.30 -2.05 -0.40 -1.15 -0.13 -1.58 -0.28 -1.58 -0.55 0 -0.22 0.15 -0.32 0.35 -0.25 0.40 0.15 1.27 -1.65 1.17 -2.42 -0.05 -0.25 0.03 -0.40 0.15 -0.32 0.10 0.08 0.70 -0.13 1.30 -0.45 1 -0.50 1.08 -0.57 0.60 -0.73 -0.57 -0.17 -2.58 0.88 -2.58 1.35 0 0.15 -0.38 0.68 -0.85 1.17 -0.45 0.52 -0.77 1.08 -0.73 1.23 0.20 0.57 -3.75 0.85 -4.70 0.35 -0.57 -0.32 -0.65 -1.67 -0.10 -2.40 0.20 -0.25 0.38 -0.63 0.38 -0.82 0 -0.20 0.17 -0.57 0.43 -0.82 0.38 -0.43 0.35 -0.45 -0.60 -0.45 -0.55 0 -1.35 -0.17 -1.77 -0.40 -0.68 -0.32 -0.80 -0.52 -0.80 -1.23 0 -0.70 0.15 -0.93 0.75 -1.25 0.47 -0.25 0.75 -0.57 0.75 -0.90 0 -0.98 0.95 -1.45 2.92 -1.48 0.98 0 1.95 0.08 2.17 0.15 0.80 0.30 0.45 1.55 -0.88 3.30 l-1.27 1.67 1.98 0.08 c1.45 0.05 2.03 0.17 2.25 0.47 0.25 0.32 0.43 0.35 1.05 0.08 0.43 -0.17 1 -0.52 1.30 -0.77 0.57 -0.50 2.58 -0.68 2.83 -0.25 0.10 0.13 0.70 0.08 1.48 -0.13 0.70 -0.17 1.95 -0.35 2.75 -0.35 l1.42 0 0 0.95 c0 0.50 -0.22 1.33 -0.50 1.80 -0.28 0.47 -0.70 1.33 -0.98 1.88 -0.85 1.77 -1.27 2 -3.88 2.05 -1.25 0.05 -2.50 -0.03 -2.78 -0.15z m-1.17 -1.77 c0.15 0 0.30 0.13 0.35 0.28 0.05 0.15 0.40 -0.15 0.75 -0.68 0.50 -0.70 0.63 -1.02 0.43 -1.27 -0.30 -0.35 -0.82 -0.17 -0.60 0.20 0.10 0.13 -0.03 0.25 -0.22 0.25 -0.22 0.03 -0.50 0.08 -0.65 0.10 -0.13 0.03 -0.43 0.08 -0.68 0.10 -0.22 0 -0.32 0.10 -0.25 0.20 0.10 0.08 0.05 0.30 -0.10 0.50 -0.20 0.22 -0.20 0.32 -0.03 0.32 0.15 0 0.22 0.20 0.15 0.45 -0.13 0.40 -0.13 0.40 0.22 0 0.20 -0.25 0.47 -0.45 0.63 -0.45z"/>
  <path d="M77.15 59.83 c-0.13 -1.63 -0.08 -2.22 0.15 -2.38 0.45 -0.28 1.90 -0.25 2.08 0.05 0.08 0.15 0.43 0.25 0.77 0.25 0.55 0 0.60 0.10 0.60 1.13 0 0.77 -0.20 1.45 -0.63 2.13 -0.57 0.93 -0.73 1 -1.73 1 l-1.08 0 -0.17 -2.17z"/>
  <path d="M73.75 58.15 c-1.13 -0.63 -2.20 -0.73 -3.03 -0.30 -0.45 0.22 -1.35 0.40 -2 0.40 -1.48 0 -2.05 -0.50 -1.92 -1.63 0.13 -1.05 -0.35 -1.50 -1.25 -1.17 -0.38 0.13 -1.17 0.15 -1.80 0.08 -1.05 -0.15 -1.13 -0.20 -1.20 -0.98 -0.13 -1.17 0.25 -1.48 2.03 -1.67 1.27 -0.15 1.73 -0.32 2.50 -1.02 0.73 -0.68 1.15 -0.85 1.95 -0.85 l1.05 0 -0.13 1.45 -0.15 1.42 0.93 0.05 c0.50 0 1.13 0.05 1.40 0.08 0.28 0.05 1.35 -0.03 2.42 -0.13 1.05 -0.10 2.30 -0.13 2.80 -0.03 0.80 0.15 0.90 0.25 0.90 0.95 0 0.55 -0.25 1.05 -0.77 1.60 -0.43 0.45 -0.93 1.08 -1.08 1.40 -0.35 0.70 -1.70 0.88 -2.65 0.35z m-3.80 -1.85 c0.15 -0.03 0.28 -0.17 0.25 -0.35 -0.05 -0.17 0.05 -0.30 0.22 -0.32 0.45 0 0.70 -0.38 0.25 -0.38 -0.22 0 -0.43 -0.10 -0.43 -0.25 0 -0.13 -0.17 -0.25 -0.38 -0.25 -0.20 0 -0.38 -0.13 -0.38 -0.30 0 -0.50 -0.95 0.63 -1.13 1.30 -0.15 0.65 0.08 0.73 1.58 0.55z"/>
  <path d="M83.75 50.40 l0 -1.40 0.82 0 c1.23 0.03 1.73 0.52 1.63 1.67 -0.08 0.95 -0.08 0.95 -1.25 1.02 l-1.20 0.08 0 -1.38z"/>
 </g>
 <g fill="#191b20">
  <path d="M0 57 l0 -57 141 0 141 0 0 57 0 57 -141 0 -141 0 0 -57z m46.60 18.25 c0.57 0 1.17 0.13 1.33 0.28 0.22 0.22 0.25 0.17 0.15 -0.25 -0.08 -0.28 -0.30 -0.52 -0.50 -0.52 -0.20 0 -0.88 -0.35 -1.48 -0.80 -0.60 -0.43 -1.17 -0.73 -1.25 -0.63 -0.30 0.30 -0.20 1.90 0.17 2.33 0.32 0.40 0.35 0.40 0.43 0.03 0.08 -0.32 0.35 -0.43 1.15 -0.43z m41.55 -0.10 c0.03 0 0.10 -4.53 0.20 -10.02 0.08 -5.50 0.20 -10.73 0.30 -11.63 0.13 -1.60 0.13 -1.63 -0.32 -1.10 -0.55 0.68 -2.47 3.20 -4 5.30 -0.63 0.85 -1.25 1.55 -1.40 1.55 -0.20 0 -0.30 0.77 -0.30 2.42 l0 2.45 -1.05 0.03 c-0.60 0 -1.15 0.10 -1.25 0.17 -0.08 0.10 -0.60 0.17 -1.13 0.17 -0.82 0 -0.95 -0.08 -0.95 -0.57 0 -0.57 -0.03 -0.57 -1.58 -0.35 -0.88 0.15 -2.13 0.17 -2.78 0.08 l-1.17 -0.17 0.15 -0.93 c0.08 -0.50 0.30 -1.23 0.50 -1.60 0.30 -0.63 0.30 -0.73 -0.13 -0.95 -0.25 -0.15 -0.70 -0.25 -1 -0.25 -0.43 0 -0.50 0.10 -0.38 0.45 0.40 0.93 0.40 1.48 0.03 1.77 -0.50 0.43 -0.52 1.27 -0.03 1.27 0.20 0 0.38 0.17 0.38 0.38 0 0.30 -0.38 0.38 -1.98 0.38 -1.25 0 -2.22 0.13 -2.67 0.38 -0.40 0.20 -1.02 0.38 -1.40 0.38 -0.38 0 -0.82 0.17 -1.02 0.38 -0.20 0.20 -0.45 0.28 -0.55 0.17 -0.10 -0.10 -0.15 0 -0.13 0.20 0.05 0.20 -0.03 0.75 -0.13 1.20 -0.13 0.57 -0.30 0.77 -0.55 0.70 -0.20 -0.10 -0.52 -0.15 -0.73 -0.15 -0.20 0 -0.35 -0.20 -0.35 -0.43 0 -0.22 -0.08 -0.32 -0.17 -0.25 -0.08 0.10 -0.28 0.05 -0.45 -0.08 -0.20 -0.17 -0.50 0 -1 0.50 -0.40 0.40 -0.68 0.80 -0.60 0.85 0.05 0.05 0.68 0.17 1.35 0.25 0.93 0.13 1.13 0.08 0.75 -0.10 -0.45 -0.20 -0.40 -0.25 0.25 -0.22 1.65 0.05 1.88 -0.03 2.03 -0.65 0.08 -0.32 0.32 -0.75 0.55 -0.93 0.32 -0.28 0.32 -0.22 -0.03 0.47 -0.25 0.45 -0.43 0.98 -0.43 1.17 0 0.20 -0.20 0.43 -0.43 0.47 -0.25 0.08 0 0.13 0.55 0.15 0.55 0.03 1.67 0.13 2.50 0.28 0.82 0.13 2 0.22 2.63 0.25 2.08 0 2.33 -0.08 1.70 -0.70 -0.22 -0.22 -0.20 -0.30 0.10 -0.30 0.22 0 0.47 -0.15 0.52 -0.30 0.22 -0.52 0.65 0.25 0.47 0.85 -0.10 0.43 -0.03 0.47 0.40 0.32 0.45 -0.13 0.52 -0.08 0.38 0.28 -0.28 0.75 0.50 0.25 1.15 -0.73 0.52 -0.80 0.73 -0.93 1.60 -0.93 l1 0 -0.13 1.30 c-0.10 1.05 -0.28 1.42 -0.90 1.98 l-0.77 0.68 0.77 1.23 c0.40 0.65 1.10 1.58 1.52 2.03 l0.80 0.82 4.63 -0.17 c2.55 -0.08 4.65 -0.17 4.65 -0.20z m-37.90 -1.65 c-0.90 -0.80 -1.70 -1.48 -1.83 -1.50 -0.10 0 -0.85 -0.63 -1.67 -1.38 -0.82 -0.75 -1.55 -1.38 -1.63 -1.38 -0.38 0 0.63 1.02 2.15 2.22 0.95 0.75 1.73 1.50 1.73 1.67 0 0.20 0.20 0.35 0.45 0.35 0.22 0 0.82 0.35 1.30 0.75 1.50 1.25 1.20 0.82 -0.50 -0.75z m3 -6.38 c0 -0.35 -0.22 -0.75 -0.50 -0.93 -0.77 -0.50 -0.68 -1.98 0.20 -2.90 0.38 -0.40 0.88 -1.02 1.10 -1.38 0.25 -0.35 0.70 -0.70 1 -0.75 0.38 -0.08 0.22 -0.13 -0.35 -0.15 -1.15 -0.03 -2.13 -0.68 -4.20 -2.80 -0.90 -0.90 -1.15 -1.10 -0.55 -0.47 0.80 0.88 1.05 1.35 1.05 1.98 l0 0.85 -1.30 -0.15 c-0.93 -0.13 -1.50 -0.35 -2.05 -0.85 -1.05 -0.98 -2.63 -2.03 -2.17 -1.50 0.45 0.57 0.25 2.78 -0.32 3.40 -0.70 0.77 -0.30 1.42 1.27 2.15 0.77 0.35 2.03 1.17 2.75 1.83 2.88 2.58 3.17 2.78 3.63 2.53 0.25 -0.13 0.45 -0.52 0.45 -0.85z m10.60 -2.17 c0.15 -0.10 -0.08 -0.20 -0.50 -0.20 -0.47 0 -0.95 0.20 -1.25 0.55 -0.40 0.45 -0.40 0.50 -0.05 0.38 0.25 -0.08 0.47 0 0.57 0.25 0.13 0.35 0.20 0.32 0.55 -0.20 0.22 -0.32 0.55 -0.68 0.68 -0.77z m-1.45 -1.38 c0.17 -1.25 1.40 -3.22 2.42 -3.95 0.30 -0.20 0.40 -0.38 0.22 -0.38 -0.47 0 -0.35 -0.60 0.20 -1.08 0.28 -0.22 0.50 -0.57 0.50 -0.77 0 -0.47 1.77 -0.68 2.20 -0.22 0.35 0.35 1.35 0.45 1.65 0.15 0.15 -0.15 1.33 -0.28 3.30 -0.35 0.43 -0.03 1.13 0.15 1.55 0.38 0.47 0.25 0.82 0.30 0.93 0.15 0.08 -0.15 0.38 -0.25 0.65 -0.25 0.35 0 0.47 -0.17 0.47 -0.63 0 -0.35 0.22 -0.88 0.50 -1.17 0.77 -0.85 0.60 -1 -1.05 -0.95 -2.67 0.13 -2.70 0.10 -2.70 -0.82 0 -0.65 0.25 -1.08 1.15 -1.98 l1.15 -1.15 -2.90 0.05 -2.90 0.03 0 0.70 c0 0.57 -0.10 0.68 -0.45 0.55 -0.28 -0.08 -0.73 0.08 -1.08 0.32 -0.32 0.25 -1.27 0.65 -2.10 0.88 -0.82 0.22 -1.52 0.52 -1.58 0.65 -0.05 0.15 -0.22 0.20 -0.40 0.13 -0.17 -0.08 -0.47 0.05 -0.65 0.28 -0.17 0.20 -0.22 0.38 -0.10 0.40 0.13 0.03 0.40 0.05 0.60 0.08 0.20 0.05 0.57 0.08 0.82 0.10 0.80 0.08 0.43 0.77 -0.68 1.30 -1.55 0.70 -2.65 1.67 -2.65 2.38 0 0.38 -0.17 0.65 -0.50 0.75 -0.38 0.13 -0.50 0.38 -0.50 0.98 0 0.57 -0.22 1.02 -0.75 1.52 -0.40 0.40 -0.75 0.85 -0.75 1.02 0 0.30 1.08 0.60 2.15 0.60 0.50 0 0.60 0.13 0.60 0.75 0 1.17 0.45 0.88 0.65 -0.43z m16.60 -2.70 c0.17 -0.20 0.40 -0.32 0.50 -0.25 0.13 0.08 0.35 -0.35 0.55 -0.93 0.22 -0.80 0.47 -1.10 0.90 -1.15 0.30 -0.05 0.55 -0.25 0.55 -0.47 0 -0.30 -0.17 -0.35 -0.93 -0.20 -0.52 0.10 -1.02 0.30 -1.13 0.45 -0.15 0.22 -0.30 0.22 -0.65 0 -0.30 -0.17 -0.60 -0.20 -0.82 -0.05 -0.28 0.17 -0.22 0.25 0.20 0.38 0.52 0.15 0.55 0.20 0.20 0.88 -0.70 1.33 -0.22 2.38 0.63 1.35z m-25.67 -5.05 c-0.08 -0.45 -0.22 -0.82 -0.35 -0.82 -0.22 0 -2.88 -2.05 -3.35 -2.60 -0.22 -0.25 -3.08 -2.70 -4.22 -3.63 -0.43 -0.35 -0.43 -0.30 0.05 0.40 0.55 0.80 7.80 7.68 7.93 7.53 0.03 -0.05 0 -0.45 -0.05 -0.88z m31.05 -3.05 c-0.25 -0.25 -0.85 0.25 -0.73 0.60 0.15 0.35 0.20 0.32 0.47 -0.05 0.20 -0.25 0.30 -0.50 0.25 -0.55z m-5.28 -0.77 c0.08 -0.35 0.38 -0.88 0.65 -1.20 0.40 -0.43 0.43 -0.55 0.15 -0.55 -0.20 0 -0.52 -0.17 -0.73 -0.38 -0.32 -0.32 -0.50 -0.32 -1.35 -0.03 l-0.95 0.35 0.95 0.17 c0.93 0.17 0.93 0.17 0.95 1.48 0.03 1.27 0.08 1.30 0.32 0.15z m-16.55 -0.35 c0.50 -0.22 1.08 -0.40 1.27 -0.40 0.22 0 0.47 -0.10 0.55 -0.25 0.08 -0.13 0.32 -0.25 0.52 -0.25 0.20 0 0.82 -0.22 1.42 -0.47 0.57 -0.28 1.38 -0.52 1.77 -0.57 0.70 -0.08 0.63 -0.17 -2.13 -3.08 -1.58 -1.65 -4.97 -5.45 -7.55 -8.43 -2.60 -2.97 -4.95 -5.47 -5.25 -5.55 -0.30 -0.08 -2.20 -0.15 -4.22 -0.15 l-3.67 0 -0.08 0.70 c-0.20 1.63 0.73 3.28 3.17 5.68 0.40 0.43 2.85 2.95 5.43 5.63 4.65 4.88 6.25 6.68 6.72 7.53 0.17 0.35 0.35 0.40 0.68 0.25 0.22 -0.13 0.82 -0.40 1.35 -0.63z m-9.05 -1.63 c0 -1.45 -0.05 -1.55 -1.48 -3.33 -0.80 -1 -2.72 -3 -4.25 -4.40 l-2.78 -2.60 0 1.73 c0 2.03 0.25 2.50 2.53 4.82 2 2.05 5.55 5.25 5.80 5.25 0.10 0 0.17 -0.68 0.17 -1.48z m31.92 0.60 c0.05 -0.15 -0.15 -0.40 -0.43 -0.57 -0.45 -0.28 -0.50 -0.25 -0.45 0.32 0.05 0.63 0.68 0.80 0.88 0.25z m2.80 -5.45 c0.30 -2.55 0.85 -3.67 1.83 -3.67 0.63 0 1.80 -1.17 2.55 -2.58 0.52 -0.98 0.65 -1.52 0.65 -3 0 -1.65 -0.08 -1.92 -0.88 -3.10 -1.75 -2.63 -5.38 -3.72 -8.38 -2.55 -1.08 0.43 -2.72 1.73 -3.47 2.75 -0.55 0.73 -0.55 0.75 -0.08 0.50 0.57 -0.30 3.65 -0.32 6.60 -0.08 1.70 0.17 2.03 0.28 2.65 0.93 1.35 1.40 1.50 1.95 1.02 4.13 -0.28 1.27 -0.28 1.27 -1.17 1.20 l-0.93 -0.08 -0.08 -1.65 -0.08 -1.67 -0.93 -0.10 c-0.50 -0.08 -2.45 -0.08 -4.30 0.03 l-3.38 0.15 -0.08 3.13 c-0.05 1.73 0 4.18 0.08 5.43 l0.17 2.30 3.20 -0.13 c2.58 -0.13 3.33 -0.08 3.90 0.22 0.40 0.20 0.75 0.38 0.75 0.35 0.03 -0.03 0.17 -1.15 0.32 -2.50z"/>
 </g>
 <g fill="#3b3e40">
  <path d="M43.75 74.68 c0 -0.20 0.08 -0.88 0.15 -1.52 0.13 -0.90 0.28 -1.15 0.63 -1.15 0.63 0 1.02 0.82 0.93 1.95 -0.08 0.85 -0.15 0.93 -0.88 1 -0.57 0.05 -0.82 -0.03 -0.82 -0.28z"/>
  <path d="M51.13 67.85 c-1.15 -0.28 -1.80 -0.65 -2.13 -1.23 -0.93 -1.48 -3.88 -4.63 -4.57 -4.85 l-0.75 -0.28 0.50 -0.57 c0.70 -0.75 0.93 -1.63 0.57 -2.05 -0.25 -0.32 -0.17 -0.38 0.45 -0.38 0.63 0 1.15 0.38 2.83 2.03 1.73 1.73 1.92 1.88 1.25 0.90 -0.43 -0.63 -0.77 -1.35 -0.77 -1.58 0 -0.25 -0.30 -0.77 -0.68 -1.15 -0.38 -0.38 -0.55 -0.70 -0.43 -0.70 0.15 0 0.57 0.32 0.95 0.73 0.38 0.40 0.98 0.77 1.30 0.85 0.50 0.08 0.35 -0.15 -0.82 -1.42 l-1.42 -1.52 0.88 -0.08 c0.77 -0.10 0.98 0.05 2.35 1.52 1.25 1.38 1.58 1.60 1.95 1.40 0.32 -0.20 0.63 -0.15 1.13 0.20 0.38 0.25 0.90 0.45 1.17 0.47 0.28 0.03 0.82 0.05 1.23 0.08 0.57 0.03 0.68 0.10 0.45 0.32 -0.43 0.43 -0.38 0.90 0.10 1 0.32 0.08 0.32 0.13 0 0.57 -0.30 0.40 -0.45 0.45 -0.82 0.22 -0.35 -0.22 -0.57 -0.20 -1 0.08 -0.57 0.38 -1.70 2 -1.70 2.45 -0.03 0.40 0.70 0.82 1.13 0.68 0.30 -0.10 0.32 -0.05 0.08 0.22 -0.45 0.45 -0.40 1 0.10 1.38 0.25 0.17 0.38 0.40 0.25 0.50 -0.22 0.22 -2.83 0.38 -3.55 0.20z"/>
  <path d="M55.55 64.07 c0.45 -1.10 0.88 -1.45 1.25 -1.13 0.20 0.17 0.47 0.17 0.70 0.05 0.20 -0.13 0.45 -0.15 0.57 -0.08 0.13 0.08 0.17 -0.15 0.15 -0.47 -0.05 -0.35 0.13 -0.82 0.47 -1.20 0.52 -0.57 0.57 -0.57 1 -0.17 0.40 0.43 0.40 0.47 -0.20 0.93 l-0.63 0.50 0.57 0.15 c1.02 0.30 0.65 0.85 -0.57 0.85 -0.77 0 -1.13 0.10 -1.13 0.32 0 0.43 -1.05 0.93 -1.88 0.93 -0.57 0 -0.60 -0.05 -0.32 -0.68z"/>
  <path d="M60.83 59.08 c-0.88 -0.13 -1.10 -0.50 -0.45 -0.75 0.22 -0.08 0.38 -0.32 0.32 -0.57 -0.13 -0.77 0.77 -1.50 1.85 -1.50 0.95 0 1.30 0.38 0.57 0.65 -0.50 0.20 -0.50 1.35 0.03 1.35 0.22 0 0.35 0.17 0.30 0.45 -0.08 0.45 -1.02 0.57 -2.63 0.38z"/>
  <path d="M75.63 57.05 c0.20 -0.38 0.70 -1.02 1.15 -1.42 l0.77 -0.75 -0.10 1.25 c-0.08 1.42 -0.25 1.63 -1.38 1.63 -0.77 0 -0.77 0 -0.45 -0.70z"/>
  <path d="M77.32 53.42 c0.57 -0.40 0.90 -2.25 0.40 -2.15 -0.20 0.03 -0.55 -0.05 -0.82 -0.15 -0.32 -0.15 -0.52 -0.08 -0.70 0.20 -0.38 0.70 -0.70 0.47 -0.70 -0.43 0 -0.82 0.10 -0.90 1.80 -1.75 1.75 -0.85 1.80 -0.88 2.20 -0.40 0.22 0.28 0.73 0.60 1.08 0.73 0.88 0.35 0.85 0.82 -0.08 1.23 -0.55 0.25 -0.80 0.60 -1.02 1.38 -0.15 0.57 -0.32 1.20 -0.38 1.38 -0.05 0.17 -0.50 0.30 -1.15 0.30 -0.90 0 -0.98 -0.05 -0.63 -0.32z"/>
  <path d="M68.25 51.60 c0 -0.20 0.17 -0.35 0.38 -0.35 0.20 0 0.38 -0.17 0.38 -0.38 0 -0.22 -0.15 -0.30 -0.38 -0.22 -0.25 0.10 -0.38 0 -0.38 -0.38 0 -0.55 0.77 -0.88 1.77 -0.73 0.50 0.05 0.60 0.25 0.68 1.13 0.08 0.93 0 1.08 -0.50 1.15 -1.17 0.22 -1.95 0.13 -1.95 -0.22z"/>
  <path d="M88.50 41.53 c0 -1.63 0.13 -2.78 0.38 -3.38 0.47 -1.10 0.55 -1.13 0.50 -0.15 -0.08 1.17 0.32 1.15 0.55 -0.05 0.28 -1.35 0.93 -1.58 1.17 -0.43 0.08 0.43 0.15 1.67 0.15 2.75 0 1.75 -0.05 1.98 -0.45 1.98 -0.55 0 -1.50 1.02 -1.35 1.45 0.05 0.17 -0.13 0.30 -0.43 0.30 -0.50 0 -0.52 -0.13 -0.52 -2.47z"/>
 </g>
 <g fill="#949798">
  <path d="M72.25 63.25 c0 -0.15 0.15 -0.32 0.32 -0.40 0.17 -0.05 0.32 -0.30 0.35 -0.55 0.05 -0.68 0.55 -1.80 0.80 -1.80 0.10 0 0.35 0.15 0.50 0.35 0.20 0.25 0.15 0.47 -0.22 0.98 -0.63 0.77 -0.63 0.93 0 0.93 0.32 0 0.45 0.13 0.35 0.38 -0.17 0.43 -2.10 0.55 -2.10 0.13z"/>
  <path d="M58.83 61.60 c-0.08 -0.20 0.10 -0.63 0.40 -0.95 l0.55 -0.57 -0.52 -0.15 c-0.85 -0.22 -0.32 -0.68 0.75 -0.68 1.13 0 1.52 0.43 0.88 0.90 -0.25 0.17 -0.38 0.50 -0.30 0.70 0.10 0.22 -0.08 0.55 -0.40 0.77 -0.68 0.47 -1.15 0.47 -1.35 -0.03z"/>
  <path d="M68.35 61.63 c0.43 -1.15 0.45 -1.63 0.05 -1.63 -0.22 0 -0.40 -0.17 -0.40 -0.38 0 -0.30 0.35 -0.38 1.63 -0.38 1.23 0 1.63 0.08 1.63 0.35 0 0.20 -0.25 0.43 -0.55 0.50 -0.32 0.08 -0.80 0.52 -1.08 0.95 -0.55 0.88 -1.58 1.35 -1.27 0.57z"/>
  <path d="M73.25 60 c-0.28 -0.17 -0.13 -0.25 0.57 -0.25 0.57 0 0.90 0.10 0.80 0.25 -0.20 0.32 -0.88 0.32 -1.38 0z"/>
  <path d="M75.50 57.50 c0 -0.15 0.28 -0.40 0.63 -0.55 0.38 -0.15 0.63 -0.50 0.63 -0.77 0 -0.28 0.17 -0.73 0.43 -0.98 0.38 -0.43 0.38 -0.45 -0.08 -0.47 -0.25 -0.03 -0.57 -0.03 -0.68 0 -0.13 0.03 -0.15 -0.08 -0.05 -0.22 0.20 -0.32 2.38 -0.32 2.38 0 0 0.15 -0.10 0.25 -0.25 0.25 -0.13 0 -0.25 0.20 -0.25 0.45 0 0.25 -0.22 0.70 -0.50 1 -0.60 0.63 -0.65 1.05 -0.13 1.05 0.20 0 0.38 0.13 0.38 0.25 0 0.15 -0.55 0.25 -1.25 0.25 -0.68 0 -1.25 -0.13 -1.25 -0.25z"/>
  <path d="M66.50 56.75 c-0.32 -0.22 -0.32 -0.30 0.08 -0.52 0.40 -0.22 0.40 -0.28 0.03 -0.65 -0.38 -0.38 -0.32 -0.45 0.43 -0.85 1.10 -0.55 1.90 -1.42 2.10 -2.28 0.20 -0.77 0.10 -0.82 -0.65 -0.45 -0.38 0.22 -0.47 0.17 -0.47 -0.13 0 -0.40 0.13 -0.47 1.33 -0.75 0.50 -0.10 0.68 -0.25 0.57 -0.50 -0.08 -0.25 0.03 -0.38 0.35 -0.38 0.63 0 0.77 1.38 0.25 2.33 -0.35 0.65 -0.35 0.73 0.08 0.95 0.70 0.40 0.52 0.98 -0.32 0.98 -0.52 0 -1 0.28 -1.73 1.05 -0.55 0.55 -0.95 1.13 -0.88 1.25 0.17 0.28 -0.70 0.25 -1.15 -0.05z"/>
  <path d="M68.38 50.50 c0.28 -0.13 0.68 -0.22 0.88 -0.22 0.22 0 0.20 0.10 -0.13 0.22 -0.28 0.13 -0.68 0.22 -0.88 0.22 -0.22 0 -0.20 -0.10 0.13 -0.22z"/>
 </g>
 <g fill="#9fa4a6">
  <path d="M66.75 64.05 c0 -0.13 0.22 -0.43 0.50 -0.68 0.28 -0.25 0.50 -0.60 0.50 -0.75 0 -0.17 0.32 -0.68 0.73 -1.10 0.38 -0.40 0.65 -0.85 0.55 -0.95 -0.08 -0.10 0.05 -0.03 0.28 0.15 0.40 0.30 0.40 0.38 -0.10 1.02 -0.52 0.70 -0.47 1.70 0.08 1.38 0.17 -0.13 0.22 0.03 0.17 0.40 -0.08 0.52 -0.22 0.60 -1.38 0.68 -0.73 0.05 -1.33 -0.03 -1.33 -0.15z"/>
  <path d="M51.53 62.03 c-0.25 -0.15 -0.28 -0.32 -0.08 -0.68 0.20 -0.38 0.15 -0.60 -0.25 -1.02 l-0.52 -0.57 1.40 0 c0.77 0 1.48 0.13 1.55 0.25 0.08 0.15 -0.03 0.25 -0.22 0.25 -0.22 0 -0.47 0.30 -0.55 0.70 -0.17 0.70 -0.55 1.30 -0.82 1.30 -0.08 0 -0.30 -0.10 -0.50 -0.22z"/>
  <path d="M64.22 60.15 c0.22 -0.28 0.20 -0.38 -0.10 -0.50 -0.25 -0.08 -0.38 -0.38 -0.32 -0.70 0.05 -0.43 0.25 -0.55 0.82 -0.60 1.73 -0.10 2.50 0.93 1.33 1.75 -0.73 0.52 -2.15 0.55 -1.73 0.05z"/>
  <path d="M68.70 59.83 c0.30 -0.05 0.75 -0.05 1 0 0.22 0.08 -0.03 0.13 -0.57 0.10 -0.55 0 -0.75 -0.05 -0.43 -0.10z"/>
  <path d="M69.50 58.90 c0 -0.05 0.35 -0.15 0.75 -0.20 0.43 -0.08 0.75 -0.03 0.75 0.10 0 0.10 -0.32 0.20 -0.75 0.20 -0.40 0 -0.75 -0.05 -0.75 -0.10z"/>
  <path d="M69.65 58.08 c-0.35 -0.35 -0.10 -0.88 0.55 -1.10 0.63 -0.22 1.30 -1.17 1.30 -1.90 0 -0.17 0.28 -0.32 0.63 -0.32 0.63 0 0.82 0.35 0.38 0.63 -0.13 0.08 -0.25 0.43 -0.25 0.73 0 0.50 0.20 0.65 1.15 0.88 1.25 0.32 1.30 0.47 0.20 0.65 -0.40 0.08 -1.13 0.20 -1.60 0.28 -1.65 0.28 -2.20 0.32 -2.35 0.17z"/>
  <path d="M82.80 54.33 c0.08 -0.45 -1.13 -0.90 -1.85 -0.68 -0.32 0.10 -0.45 0 -0.45 -0.35 0 -0.50 0.63 -0.80 1.70 -0.80 0.30 0 0.63 -0.17 0.73 -0.40 0.08 -0.20 0.38 -0.35 0.68 -0.30 0.28 0.03 0.68 -0.05 0.88 -0.15 0.52 -0.32 0.20 1.63 -0.38 2.45 -0.55 0.73 -1.42 0.88 -1.30 0.22z"/>
 </g>
 <g fill="#b2b6ba">
  <path d="M50.40 63.60 c-0.08 -0.20 -0.15 -0.85 -0.15 -1.42 0.03 -0.95 0.05 -1 0.38 -0.60 0.32 0.45 0.35 0.45 0.88 -0.08 0.43 -0.43 0.60 -0.47 0.90 -0.25 0.30 0.25 0.22 0.45 -0.40 1.25 -1.08 1.38 -1.40 1.60 -1.60 1.10z"/>
  <path d="M51.63 60.47 c-0.38 -0.15 -0.28 -0.20 0.45 -0.20 0.50 -0.03 0.93 0.03 0.93 0.08 0 0.22 -0.93 0.30 -1.38 0.13z"/>
  <path d="M70 58.90 c0 -0.22 1 -0.32 1.15 -0.13 0.08 0.13 -0.15 0.22 -0.50 0.22 -0.35 0 -0.65 -0.05 -0.65 -0.10z"/>
  <path d="M70.60 57.88 c-0.20 -0.50 -0.05 -0.65 0.75 -0.73 0.95 -0.13 1 0.17 0.13 0.70 -0.65 0.40 -0.75 0.40 -0.88 0.03z"/>
  <path d="M65.75 57.40 c0 -0.40 0.22 -0.77 0.63 -1.05 0.63 -0.40 1.52 -0.32 1.27 0.13 -0.10 0.13 0.03 0.40 0.22 0.63 0.45 0.45 0.32 0.55 -1.05 0.77 -1.02 0.15 -1.08 0.15 -1.08 -0.47z"/>
  <path d="M61.72 56.28 c0.63 -0.55 1.17 -0.98 1.25 -0.98 0.08 0.03 0.47 -0.10 0.85 -0.25 0.93 -0.40 1.30 -0.38 1.67 0.08 0.25 0.30 0.25 0.38 -0.05 0.38 -0.20 0 -0.80 0.35 -1.38 0.75 -0.68 0.50 -1.42 0.80 -2.22 0.90 l-1.23 0.13 1.10 -1z"/>
  <path d="M60 56.53 c0 -0.28 2.20 -2.15 2.35 -2 0.05 0.05 -0.45 0.57 -1.13 1.17 -0.68 0.60 -1.23 0.98 -1.23 0.82z"/>
  <path d="M80 51.38 c0 -0.40 -0.15 -0.63 -0.38 -0.63 -0.47 0 -0.47 -0.35 -0.03 -0.73 0.70 -0.57 4.85 -0.80 4.53 -0.28 -0.10 0.15 -0.47 0.22 -0.85 0.17 -0.52 -0.10 -0.98 0.10 -1.73 0.70 -0.57 0.45 -0.98 0.88 -0.90 0.93 0.08 0.08 -0.05 0.20 -0.28 0.28 -0.28 0.13 -0.38 0 -0.38 -0.45z"/>
 </g>
 <g fill="#cdd0d3">
  <path d="M61 64.43 c0 -0.32 -0.13 -0.43 -0.38 -0.32 -0.20 0.08 -0.68 0.03 -1.02 -0.10 -0.47 -0.17 -0.77 -0.17 -1 0.03 -0.28 0.22 -0.38 0.20 -0.50 -0.13 -0.28 -0.73 0.10 -1.15 1 -1.15 0.47 0 0.95 0.13 1.02 0.25 0.08 0.15 0.52 0.25 0.98 0.25 0.70 0 0.95 -0.17 1.65 -1.17 1.85 -2.60 3.70 -3.97 4.40 -3.25 0.25 0.25 1.77 0.20 2.90 -0.05 0.50 -0.13 1 -0.13 1.13 0 0.10 0.10 0.80 0.22 1.50 0.28 1.20 0.08 1.33 0.13 1.33 0.68 0 0.45 -0.10 0.55 -0.43 0.40 -1 -0.43 -2.08 -0.57 -2.25 -0.32 -0.10 0.17 -1.02 0.22 -2.60 0.13 l-2.45 -0.15 -1.27 1.15 c-1.63 1.45 -1.95 2.05 -1.40 2.45 0.55 0.40 0.50 0.63 -0.10 0.63 -0.28 0 -0.50 0.15 -0.50 0.35 0 0.22 -0.35 0.38 -1 0.45 -0.85 0.08 -1 0.03 -1 -0.38z"/>
  <path d="M60.13 60.13 c-0.13 -0.05 -0.55 -0.15 -0.93 -0.22 -0.40 -0.10 -0.70 -0.32 -0.70 -0.50 0 -0.50 2.65 -1.48 3.35 -1.25 0.28 0.10 0.95 0.17 1.48 0.17 0.63 0 1 0.13 1.15 0.40 0.40 0.75 0.05 0.95 -1.45 0.85 -1.08 -0.08 -1.52 0 -1.77 0.30 -0.30 0.35 -0.60 0.43 -1.13 0.25z"/>
  <path d="M57.75 58.78 c0 -0.25 0.28 -0.57 0.60 -0.73 0.55 -0.25 0.57 -0.22 0.30 0.35 -0.35 0.75 -0.90 0.98 -0.90 0.38z"/>
  <path d="M67.82 55.45 c-0.32 -0.75 -0.15 -1.20 0.45 -1.20 0.25 0 0.47 -0.10 0.47 -0.22 0 -0.25 1.77 -0.52 2.13 -0.30 0.77 0.45 1.38 0.25 2.05 -0.65 0.38 -0.50 1.02 -1.23 1.40 -1.63 0.82 -0.80 0.50 -1.15 -0.63 -0.73 -0.35 0.13 -0.70 0.17 -0.77 0.10 -0.20 -0.17 -1.88 0.88 -2.15 1.35 -0.40 0.75 -1.05 0.17 -0.98 -0.85 0.05 -0.65 -0.03 -0.93 -0.22 -0.90 -0.40 0.10 -0.43 -0.35 -0.03 -0.77 0.25 -0.25 0.47 -0.28 1.08 -0.03 0.40 0.15 1.15 0.25 1.63 0.20 0.47 -0.05 1.38 -0.13 2 -0.17 0.63 -0.05 1.17 -0.13 1.25 -0.15 0.08 -0.03 0.20 -0.05 0.30 -0.03 0.10 0 0.93 -0.25 1.85 -0.60 l1.63 -0.63 -0.08 0.55 c-0.05 0.38 -0.52 0.77 -1.50 1.27 -0.80 0.40 -1.45 0.85 -1.45 1.02 0 0.15 -0.52 0.77 -1.15 1.40 l-1.13 1.13 0.63 0.15 c0.75 0.20 2.45 -0.15 3.25 -0.68 0.38 -0.22 0.65 -0.73 0.75 -1.35 0.20 -1.33 0.90 -1.92 2.03 -1.80 0.82 0.10 0.88 0.15 0.52 0.52 -0.20 0.22 -0.40 0.55 -0.45 0.75 -0.05 0.20 -0.28 0.57 -0.52 0.82 -0.55 0.57 -0.32 1 0.45 0.80 0.65 -0.15 1.13 0.35 0.60 0.68 -0.20 0.10 -0.60 0.15 -0.90 0.08 -0.38 -0.10 -0.77 0.08 -1.35 0.65 -0.68 0.63 -0.95 0.75 -1.48 0.60 -1.45 -0.43 -4.25 -0.15 -4.95 0.47 -0.47 0.40 -1.05 0.30 -1.05 -0.20 0 -0.47 -0.45 -0.57 -1.60 -0.35 -0.55 0.10 -1.15 0.40 -1.40 0.73 l-0.40 0.52 -0.28 -0.57z"/>
  <path d="M79.35 47.88 c-0.47 -0.35 -0.45 -0.35 0.10 -0.38 0.32 0 0.55 0.15 0.55 0.38 0 0.47 -0.03 0.47 -0.65 0z"/>
 </g>
 <g fill="#e2e3e7">
  <path d="M68.63 69 c-0.10 -0.15 0.40 -1 1.10 -1.88 0.70 -0.90 1.27 -1.77 1.27 -1.98 0 -0.20 0.13 -0.45 0.25 -0.52 0.45 -0.28 0.03 -0.60 -0.57 -0.45 -0.30 0.08 -0.82 0.13 -1.15 0.13 -0.65 0 -2.53 1.05 -2.53 1.42 0 0.47 -1.30 1.77 -1.77 1.77 -0.55 0 -0.43 -0.50 0.45 -1.67 0.40 -0.52 0.50 -0.82 0.32 -0.95 -0.15 -0.10 -0.35 -0.10 -0.43 -0.03 -0.08 0.08 -0.47 -0.05 -0.88 -0.25 -0.60 -0.32 -0.88 -0.32 -1.45 -0.10 -0.70 0.28 -1.77 1.25 -1.40 1.25 0.10 0 -0.05 0.40 -0.35 0.88 -0.47 0.77 -0.50 0.90 -0.15 1.02 0.82 0.32 0.35 0.60 -0.98 0.60 -0.75 0 -1.38 -0.10 -1.38 -0.25 0 -0.13 0.10 -0.25 0.22 -0.25 0.28 0 1.77 -2.83 1.77 -3.38 0 -0.32 0.45 -0.50 0.90 -0.30 0.10 0.03 0.25 -0.20 0.38 -0.47 0.17 -0.52 0.22 -0.52 1.52 -0.17 2.08 0.55 2.20 0.57 2.90 0.28 0.38 -0.15 0.93 -0.30 1.23 -0.30 0.30 -0.03 0.60 -0.10 0.68 -0.17 0.10 -0.08 0.90 -0.10 1.77 -0.03 1.02 0.05 1.77 0 1.98 -0.17 0.20 -0.17 1.05 -0.28 1.92 -0.25 0.88 0.03 2.08 -0.05 2.67 -0.13 1.02 -0.17 1.05 -0.15 1.05 0.52 0 0.82 -0.22 1.17 -0.82 1.40 -0.38 0.15 -0.43 0.08 -0.30 -0.32 0.15 -0.45 0.08 -0.50 -0.80 -0.40 -1.08 0.13 -2.22 0.35 -2.90 0.55 -0.25 0.08 -0.77 0.75 -1.20 1.50 -0.43 0.73 -1.02 1.60 -1.38 1.90 -0.68 0.68 -0.75 0.95 -0.22 0.95 0.20 0 0.38 0.13 0.38 0.25 0 0.32 -1.92 0.32 -2.13 0z"/>
  <path d="M50.88 67 c-0.10 -0.17 0.08 -0.22 0.50 -0.15 0.93 0.17 1.10 0.40 0.30 0.40 -0.35 0 -0.73 -0.13 -0.80 -0.25z"/>
  <path d="M51.53 66.28 c-0.45 -0.30 -0.15 -1.45 0.65 -2.38 0.38 -0.45 1.10 -1.35 1.58 -1.98 0.47 -0.63 2.28 -2.60 4 -4.38 2.92 -3 5 -4.72 5.35 -4.38 0.08 0.08 0.30 0.03 0.47 -0.15 0.30 -0.22 2.90 -1.13 3.10 -1.08 0.05 0.03 0.47 -0.15 0.98 -0.35 0.50 -0.22 1 -0.30 1.13 -0.17 0.32 0.32 -1.98 2.13 -2.85 2.22 -0.45 0.03 -0.85 0.10 -0.93 0.13 -0.08 0.03 -0.35 0.05 -0.63 0.08 -1.02 0.10 -1.92 0.68 -3.88 2.55 -1.10 1.05 -2 1.98 -2 2.08 0 0.08 -0.80 0.98 -1.75 1.98 -0.98 1 -2.05 2.28 -2.40 2.83 -0.35 0.55 -0.77 1.05 -0.98 1.15 -0.20 0.08 -0.32 0.20 -0.28 0.30 0.35 0.60 -0.95 1.92 -1.58 1.55z"/>
  <path d="M56.03 65.28 c-1.17 -0.30 -0.95 -0.88 0.73 -1.80 1.17 -0.65 2.95 -1 2.63 -0.50 -0.08 0.15 -0.28 0.20 -0.43 0.13 -0.17 -0.10 -0.20 -0.05 -0.10 0.10 0.10 0.17 0.35 0.30 0.55 0.30 0.20 0 0.35 0.13 0.35 0.28 0 0.15 -0.17 0.20 -0.40 0.13 -0.25 -0.10 -0.77 0.13 -1.30 0.55 -1.23 0.95 -1.33 1 -2.03 0.82z"/>
  <path d="M80 58.88 c0 -0.22 -0.22 -0.38 -0.60 -0.38 -0.35 0 -0.68 -0.10 -0.75 -0.20 -0.08 -0.13 -0.65 -0.20 -1.27 -0.20 -0.98 0.03 -1.13 -0.05 -1.13 -0.47 0 -0.47 0.17 -0.50 2.63 -0.52 2.53 -0.03 2.63 -0.03 2.63 0.50 0 0.68 -0.68 1.65 -1.15 1.65 -0.20 0 -0.35 -0.17 -0.35 -0.38z"/>
  <path d="M60.50 53.38 c0 -0.35 2.25 -1.25 6.22 -2.50 1.27 -0.40 1.08 -0.10 -0.22 0.35 -0.47 0.17 -1.10 0.43 -1.38 0.52 -0.47 0.20 -1.35 0.52 -1.63 0.63 -0.70 0.25 -1.23 0.47 -1.80 0.77 -0.65 0.35 -1.20 0.45 -1.20 0.22z"/>
  <path d="M91.55 46.47 c-1.13 -1.63 -1.23 -1.88 -0.73 -2.05 0.50 -0.17 1.60 0.50 2.33 1.45 0.57 0.77 0.63 0.98 0.40 1.50 -0.45 0.95 -0.85 0.75 -2 -0.90z"/>
  <path d="M80.80 28 c-1.05 -0.75 -1.80 -1.95 -1.80 -2.90 0 -1.40 1.35 -1.02 2.45 0.65 1.58 2.42 1.23 3.63 -0.65 2.25z"/>
 </g>
 <g fill="#f2f2f4">
  <path d="M48.88 77 c-0.10 -0.15 -0.25 -0.20 -0.35 -0.15 -0.10 0.08 -0.55 -0.10 -0.98 -0.38 -0.95 -0.57 -1.30 -0.60 -1.30 -0.13 0 0.85 -1.70 0.57 -2.17 -0.35 -0.43 -0.85 -0.40 -1.75 0.03 -1.75 0.60 0 0.73 -0.47 0.30 -1.13 -0.40 -0.60 -0.55 -1.38 -0.28 -1.38 0.30 0 2.28 1.10 3.03 1.65 0.43 0.32 0.85 0.60 0.93 0.60 0.50 0 0 -0.57 -1.55 -1.77 -2 -1.58 -2.80 -2.65 -2.60 -3.50 0.20 -0.77 0.52 -0.98 1.15 -0.75 0.47 0.17 1.05 0.65 6.20 5.13 1.35 1.15 2.63 2.22 2.88 2.35 0.38 0.22 0.43 0.35 0.20 0.73 -0.55 0.88 -2.33 0.38 -4.43 -1.25 -0.52 -0.40 -1.02 -0.68 -1.10 -0.60 -0.08 0.10 0.15 0.65 0.52 1.27 0.65 1.10 0.65 1.13 0.17 1.40 -0.32 0.17 -0.55 0.17 -0.65 0z"/>
  <path d="M77.50 75.60 c-0.93 -0.85 -2.58 -3.40 -2.58 -4 0 -0.50 -0.77 -1.13 -1.48 -1.20 -0.32 -0.03 -0.73 -0.13 -0.88 -0.22 -0.17 -0.10 -0.60 -0.17 -1 -0.17 -0.38 0 -1.38 -0.05 -2.20 -0.13 -0.82 -0.08 -1.85 -0.17 -2.25 -0.20 -0.43 -0.05 -0.88 -0.15 -1 -0.22 -0.15 -0.08 -0.75 -0.15 -1.38 -0.17 -0.63 -0.03 -1.67 -0.10 -2.38 -0.15 -0.68 -0.08 -2.55 -0.15 -4.13 -0.20 -1.58 -0.05 -3.22 -0.17 -3.65 -0.28 -0.57 -0.13 -0.90 -0.08 -1.17 0.20 -0.77 0.80 -1.70 0.30 -5 -2.65 -0.75 -0.65 -1.95 -1.48 -2.72 -1.83 -0.77 -0.35 -1.48 -0.88 -1.63 -1.17 -0.28 -0.63 -0.28 -1.70 0 -2.13 0.30 -0.47 1.73 0.08 2.53 0.98 2.28 2.63 3.40 4.10 3.40 4.47 0 0.32 0.22 0.43 0.95 0.43 1.13 0 3.80 0.22 5.18 0.43 1.13 0.17 7.03 0.45 8.18 0.40 0.22 -0.03 0.47 -0.25 0.57 -0.50 0.15 -0.52 0.77 -0.85 1.17 -0.63 0.13 0.08 0 0.40 -0.32 0.75 -0.30 0.32 -0.52 0.60 -0.45 0.63 0.05 0 0.32 0.08 0.60 0.13 0.98 0.22 2.90 0.28 3 0.10 0.08 -0.13 0.50 0 0.98 0.25 0.60 0.30 1.38 0.43 2.50 0.40 1.83 -0.05 2.40 -0.40 3.08 -1.88 0.22 -0.50 0.60 -1.20 0.85 -1.55 0.25 -0.35 0.57 -1.15 0.75 -1.80 0.15 -0.65 0.43 -1.17 0.60 -1.17 0.38 0 2.38 -3.05 2.38 -3.60 0 -0.55 0.82 -1.90 1.17 -1.90 0.17 0 0.73 -0.82 1.23 -1.80 1.13 -2.33 1.30 -2.60 2.35 -3.88 1.80 -2.17 2.33 -2.85 2.22 -2.92 -0.63 -0.55 -1.75 -0.60 -5.72 -0.30 -1.88 0.13 -2.25 -0.13 -2.25 -1.42 0 -0.57 -0.03 -3.22 -0.08 -5.88 -0.08 -3.53 0 -4.88 0.22 -5.07 0.15 -0.13 2.35 -0.30 4.88 -0.35 2.53 -0.08 4.72 -0.13 4.85 -0.13 0.15 0 0 -0.22 -0.30 -0.47 -0.38 -0.32 -1.02 -0.50 -2 -0.52 -2.92 -0.10 -5.22 -0.05 -6.25 0.20 -0.77 0.17 -1.08 0.15 -1.10 -0.05 0 -0.15 -0.05 -0.47 -0.10 -0.70 -0.15 -0.80 2.67 -3.83 3.80 -4.07 0.25 -0.05 0.90 -0.28 1.45 -0.47 1.05 -0.38 3.15 -0.32 4.57 0.13 0.45 0.15 0.98 0.30 1.13 0.32 0.85 0.13 2.35 1.38 3.20 2.72 l0.95 1.48 -0.10 2.30 c-0.10 2.58 -0.73 4.13 -2.17 5.47 -1.23 1.15 -1.58 0.85 -1.60 -1.33 -0.05 -2.30 -0.22 -3.55 -0.57 -4.22 -0.17 -0.30 -0.32 -0.52 -0.35 -0.52 -0.05 0 -0.08 1.95 -0.10 4.30 -0.03 2.38 -0.10 4.60 -0.17 4.95 -0.08 0.35 -0.17 1.25 -0.25 2 -0.13 1.55 -0.60 3 -1.20 3.67 -0.82 0.95 -3.70 4.80 -3.70 4.95 0 0.08 -0.40 0.68 -0.88 1.30 -1.05 1.38 -1.20 2.40 -0.17 1.10 0.38 -0.45 1.02 -1.33 1.42 -1.90 1.35 -1.92 4.22 -5.63 4.38 -5.63 0.08 0 0.28 0.32 0.45 0.73 0.25 0.55 0.28 1.92 0.15 5.80 -0.08 2.80 -0.17 8.30 -0.17 12.23 l-0.05 7.13 -2.88 0.05 c-1.58 0 -4 0.08 -5.38 0.13 l-2.50 0.08 -0.88 -0.77z m-0.88 -6.78 c0.08 -0.32 0.05 -0.57 -0.08 -0.57 -0.30 0 -1.52 1.92 -1.35 2.13 0.22 0.20 1.23 -0.90 1.42 -1.55z m3.28 -5.70 c0.50 -0.75 1 -0.80 1.35 -0.13 0.45 0.85 0.75 0.30 0.65 -1.20 -0.05 -0.77 -0.13 -1.67 -0.13 -1.98 -0.03 -0.32 -0.15 -0.57 -0.28 -0.57 -0.15 0 -0.35 0.25 -0.47 0.57 -0.82 2.08 -1.20 2.85 -1.58 3.13 -0.25 0.17 -0.45 0.43 -0.45 0.57 0 0.43 0.50 0.22 0.90 -0.40z"/>
  <path d="M51.97 72.70 c-1.30 -1.10 -3.42 -2.83 -4.72 -3.83 -1.30 -1 -2.50 -1.95 -2.65 -2.15 -0.38 -0.47 -0.57 -1.38 -0.38 -1.70 0.25 -0.40 2.50 0.77 3.53 1.85 0.47 0.50 1.73 1.42 2.75 2.05 2.35 1.45 3.40 2.42 3.97 3.67 0.43 0.90 0.45 1.77 0.05 2.03 -0.10 0.05 -1.25 -0.80 -2.55 -1.92z"/>
  <path d="M47.30 61.33 c-2.90 -2.88 -3.20 -3.28 -3.33 -4.45 -0.10 -0.70 -0.05 -0.75 0.65 -0.65 0.70 0.08 1.20 0.43 3.75 2.60 1.15 1.02 2.67 3.17 2.80 4 0.10 0.57 -0.32 1.17 -0.82 1.17 -0.20 0 -1.58 -1.20 -3.05 -2.67z"/>
  <path d="M51.63 60.50 c-0.28 -0.10 -0.88 -0.65 -1.33 -1.23 -0.45 -0.55 -1.95 -1.95 -3.33 -3.08 -2.58 -2.10 -3.35 -3.17 -2.92 -4.03 0.28 -0.55 0.68 -0.35 3.08 1.55 1.75 1.38 6.78 6.22 6.60 6.38 -0.38 0.30 -1.70 0.55 -2.10 0.40z"/>
  <path d="M73.25 59.78 c-0.35 -0.68 -0.32 -0.77 0.13 -0.63 0.25 0.10 0.75 -0.25 1.42 -1 0.75 -0.82 1.23 -1.15 1.70 -1.15 0.38 0 0.75 0.08 0.82 0.15 0.25 0.25 -2.88 3.08 -3.38 3.10 -0.25 0 -0.55 -0.22 -0.70 -0.47z"/>
  <path d="M53.10 57.75 c-0.68 -0.28 -7.65 -6.75 -8.38 -7.80 -0.88 -1.20 -0.88 -3.33 -0.03 -3.03 0.40 0.15 5.10 4.07 5.68 4.72 0.50 0.57 3.13 2.60 3.38 2.60 0.13 0 0.25 0.08 0.28 0.20 0 0.10 0.08 0.45 0.13 0.80 0.25 1.30 0.25 2.38 0 2.55 -0.32 0.22 -0.38 0.22 -1.05 -0.05z"/>
  <path d="M52.13 52.08 c-4.15 -3.90 -7.10 -6.88 -7.53 -7.63 -0.40 -0.68 -0.47 -1.27 -0.45 -3.47 0 -1.45 0.10 -2.75 0.17 -2.90 0.30 -0.50 7.93 6.88 9.38 9.05 0.75 1.13 0.80 1.33 0.68 2.97 -0.13 2.05 -0.38 3.40 -0.60 3.40 -0.08 0 -0.82 -0.65 -1.65 -1.42z"/>
  <path d="M59.83 52.95 c-0.50 -1.13 -1.80 -2.55 -9.93 -10.93 -3.13 -3.22 -5.38 -5.88 -5.43 -6.38 0 -0.15 -0.08 -0.50 -0.13 -0.77 -0.30 -1.30 -0.03 -2.92 0.52 -3.13 0.45 -0.17 7.72 -0.10 9 0.05 0.28 0.05 0.77 0.43 1.13 0.82 2.40 2.88 11.15 12.70 13.20 14.80 2.38 2.47 2.70 3.05 1.67 3.05 -1 0 -2.03 0.20 -2.97 0.63 -0.52 0.22 -1.05 0.40 -1.17 0.40 -0.13 0 -0.43 0.10 -0.68 0.22 -0.35 0.20 -0.90 0.43 -1.55 0.65 -0.70 0.25 -1.23 0.47 -1.80 0.77 -0.95 0.50 -1.58 0.43 -1.88 -0.20z"/>
  <path d="M97.35 44.72 c-0.08 -0.13 -0.22 -0.17 -0.35 -0.10 -0.32 0.20 -2.05 -0.95 -2.85 -1.90 -0.63 -0.73 -0.65 -0.82 -0.28 -1.05 1.20 -0.65 5.20 1.77 4.63 2.80 -0.22 0.43 -0.93 0.57 -1.15 0.25z"/>
  <path d="M97.25 38.58 c-0.47 -0.15 -1.02 -0.25 -1.17 -0.20 -0.17 0.08 -0.35 -0.08 -0.38 -0.32 -0.10 -1.38 -0.08 -1.42 0.68 -1.38 0.43 0.05 1.27 0.10 1.95 0.15 1.42 0.10 2.38 0.85 1.98 1.58 -0.30 0.55 -1.77 0.63 -3.05 0.17z"/>
  <path d="M75.25 34.45 c-0.28 -0.10 -0.65 -0.13 -0.82 -0.08 -0.43 0.17 -0.85 -0.17 -0.98 -0.75 -0.08 -0.45 0.05 -0.50 1.17 -0.45 2.13 0.08 2.35 0.13 2.65 0.47 0.70 0.85 -0.52 1.35 -2.03 0.80z"/>
  <path d="M96.88 34 c-1.17 -0.17 -1.63 -0.40 -1.63 -0.88 0 -0.30 1.13 -0.77 1.60 -0.65 0.10 0.03 0.32 -0.05 0.50 -0.15 0.15 -0.10 0.85 -0.20 1.52 -0.20 1.15 0 1.25 0.05 1.33 0.65 0.13 1.13 -1.05 1.58 -3.33 1.23z"/>
  <path d="M76.32 29.70 c-0.82 -0.85 -1 -1.17 -0.80 -1.50 0.20 -0.38 0.35 -0.40 0.93 -0.15 0.93 0.43 2.50 1.65 2.83 2.22 0.22 0.43 0.15 0.47 -0.85 0.47 -0.93 0 -1.20 -0.13 -2.10 -1.05z"/>
  <path d="M93.72 30.33 c-1.05 -0.25 0.45 -1.83 3.10 -3.30 0.80 -0.45 0.95 -0.47 1.08 -0.15 0.17 0.45 -0.68 1.77 -1.67 2.58 -0.77 0.63 -1.88 1 -2.50 0.88z"/>
  <path d="M88.82 27.35 c-0.13 -0.32 1.02 -2.20 2 -3.28 0.52 -0.60 1.77 -0.77 2.05 -0.30 0.20 0.32 -1.02 2.80 -1.70 3.40 -0.57 0.52 -2.17 0.65 -2.35 0.17z"/>
  <path d="M85.32 26.50 c-0.30 -0.30 -0.50 -0.77 -0.45 -1.02 0.05 -0.25 0 -0.52 -0.10 -0.60 -0.20 -0.13 -0.17 -0.85 0.10 -2.30 0.13 -0.65 0.28 -0.82 0.73 -0.82 1.15 0 1.40 2.50 0.47 4.72 l-0.25 0.60 -0.50 -0.57z"/>
 </g>
 <g fill="#000000">
  <path d="M155.57 82.80 c-0.22 -0.15 -0.30 -2.10 -0.32 -7.53 -0.03 -4.03 0.03 -7.38 0.10 -7.45 0.05 -0.08 0.13 3.17 0.15 7.20 0 5.47 0.10 7.38 0.32 7.53 0.15 0.10 0.77 0.20 1.33 0.20 0.95 0 1.05 -0.05 1.20 -0.77 0.08 -0.43 0.15 -1.50 0.15 -2.38 l0 -1.60 1.23 0 c0.68 0 1.40 0.08 1.60 0.15 0.22 0.08 0.98 1.02 1.67 2.10 1.45 2.20 2.20 2.65 4.15 2.42 0.60 -0.05 1.02 -0.03 0.95 0.10 -0.22 0.38 -2.58 0.25 -3.42 -0.15 -0.50 -0.22 -1.20 -1 -1.80 -1.92 -1.42 -2.22 -1.70 -2.45 -3 -2.45 l-1.13 0 0 1.60 c0 0.88 -0.08 1.95 -0.15 2.38 -0.15 0.75 -0.20 0.77 -1.45 0.77 -0.70 0 -1.40 -0.10 -1.58 -0.20z"/>
  <path d="M174.07 82.53 c-2.33 -0.85 -3.92 -2.35 -4.70 -4.38 -0.55 -1.42 -0.43 -4.57 0.22 -5.95 0.65 -1.35 2.30 -3.15 3.47 -3.72 2.17 -1.13 7.47 -0.75 9.15 0.65 0.80 0.68 1.17 2 0.75 2.53 -0.40 0.50 -2.03 0.43 -4.20 -0.15 -1.48 -0.40 -2.05 -0.45 -2.80 -0.25 -2.65 0.73 -3.97 3.58 -2.75 5.95 0.57 1.15 1.15 1.67 2.35 2.17 1.70 0.70 4.05 0.28 4.68 -0.85 0.38 -0.73 0.13 -1.02 -0.82 -1.02 -1.98 -0.03 -3.17 -0.60 -3.15 -1.50 0 -0.22 0.10 -0.17 0.28 0.17 0.32 0.68 0.65 0.80 2.53 1 1.60 0.17 1.92 0.47 1.45 1.48 -0.75 1.70 -4.78 1.77 -6.63 0.15 -1.27 -1.15 -1.77 -3.67 -1.05 -5.38 0.45 -1.08 1.67 -2.10 2.97 -2.45 0.88 -0.22 1.38 -0.20 3.13 0.25 3.40 0.85 4.32 0.63 3.78 -0.93 -0.70 -2 -6.65 -3 -9.45 -1.58 -1.13 0.57 -2.78 2.38 -3.42 3.72 -0.22 0.50 -0.47 1.73 -0.55 2.67 -0.15 2.25 0.52 3.90 2.10 5.38 1.80 1.65 3.05 2.10 5.97 2.13 2.20 0 2.65 -0.08 3.72 -0.63 1.67 -0.88 2.22 -1.67 2.35 -3.50 0.22 -3.17 -0.30 -3.90 -3 -4.18 -1.70 -0.15 -3.15 0.17 -3.83 0.85 -0.32 0.32 -0.38 0.32 -0.38 0 0 -0.73 2.08 -1.25 4.15 -1.10 3.05 0.22 3.55 0.88 3.30 4.47 -0.15 2.10 -0.60 2.80 -2.35 3.70 -1.67 0.85 -5.32 1 -7.28 0.28z"/>
  <path d="M191.15 82.80 c-0.05 -0.10 0.32 -0.15 0.88 -0.10 1.88 0.20 2.35 -0.20 3.08 -2.50 0.17 -0.57 1.30 -0.75 4.28 -0.65 l2.50 0.08 0.65 1.35 c0.35 0.73 0.80 1.42 1 1.55 0.20 0.13 1.08 0.17 1.98 0.10 l1.63 -0.10 -1.48 0.25 c-2.15 0.38 -2.53 0.20 -3.33 -1.48 l-0.70 -1.42 -2.53 -0.08 c-2.67 -0.08 -3.85 0.17 -3.85 0.82 0 0.50 -0.73 1.95 -1.10 2.17 -0.38 0.25 -2.85 0.25 -3 0z"/>
  <path d="M111.43 82.57 c-0.05 -0.13 -0.08 -3.40 -0.05 -7.32 l0.05 -7.13 4.85 -0.13 c2.67 -0.08 5.32 -0.08 5.93 -0.03 l1.05 0.08 0 1.20 c0 0.90 -0.10 1.25 -0.43 1.38 -0.25 0.10 -2.17 0.22 -4.28 0.30 -3.75 0.15 -3.83 0.17 -3.70 0.68 0.08 0.30 0.15 0.77 0.15 1.10 0 0.55 0.03 0.55 3.58 0.55 2.45 0 3.67 0.10 3.88 0.30 0.17 0.17 0.30 0.88 0.30 1.60 l0 1.27 -1.15 0.17 c-0.65 0.08 -2.40 0.15 -3.88 0.15 l-2.72 0 0 1.10 c0 1.38 0.08 1.40 4.38 1.40 1.80 0 3.40 0.10 3.58 0.22 0.20 0.10 0.35 0.77 0.38 1.67 l0.05 1.48 -5.93 0.08 c-3.25 0.03 -5.97 -0.03 -6.03 -0.13z m11.70 -0.32 c0.08 -0.15 0.08 -0.75 -0.03 -1.38 -0.20 -1.38 -0.10 -1.35 -4.72 -1.42 l-3.50 -0.08 -0.08 -1.42 -0.08 -1.45 2.72 0 c1.50 0 3.25 -0.08 3.90 -0.15 l1.17 -0.17 -0.08 -1.27 -0.08 -1.27 -3.80 -0.08 c-3.42 -0.05 -3.83 -0.10 -3.83 -0.50 0 -0.22 -0.08 -0.82 -0.15 -1.33 l-0.15 -0.90 3.83 -0.15 c2.13 -0.08 4.05 -0.20 4.30 -0.30 0.30 -0.13 0.43 -0.45 0.43 -1.15 l0 -0.98 -5.68 0 -5.70 0 0 7.13 0 7.13 5.68 0 c3.53 0 5.72 -0.10 5.82 -0.25z"/>
  <path d="M125.25 75.70 c0 -3.90 0.08 -7.32 0.15 -7.63 0.15 -0.52 0.28 -0.55 1.20 -0.43 0.55 0.10 1.30 0.32 1.65 0.52 0.35 0.20 1.92 1.98 3.50 3.95 1.58 2 2.95 3.63 3.05 3.63 0.10 0 0.22 -1.73 0.25 -3.80 l0.08 -3.83 1.63 0 1.60 0 0.22 1 c0.25 1.17 0.10 12.55 -0.17 13.20 -0.13 0.28 -0.47 0.43 -1.02 0.43 -1.73 0 -2.30 -0.43 -5.45 -4.22 l-3.05 -3.65 -0.20 1.50 c-0.13 0.82 -0.15 2.60 -0.10 3.95 l0.13 2.42 -1.73 0 -1.73 0 0 -7.05z m3.08 4.75 c-0.05 -1.15 0 -3.05 0.10 -4.25 l0.20 -2.20 3.25 3.92 c3.22 3.90 4.05 4.57 5.47 4.57 0.32 0 0.68 -0.20 0.77 -0.43 0.28 -0.63 0.47 -10.23 0.25 -12.20 l-0.17 -1.65 -1.40 0.08 -1.42 0.08 -0.08 4.20 -0.05 4.20 -0.65 -0.70 c-0.35 -0.40 -1.90 -2.25 -3.42 -4.13 -2.63 -3.28 -3.15 -3.72 -4.70 -4.05 -0.57 -0.13 -0.68 -0.05 -0.82 0.63 -0.08 0.43 -0.15 3.75 -0.15 7.38 l0 6.60 1.45 0 1.45 0 -0.08 -2.05z"/>
  <path d="M141.32 82.57 c-0.25 -0.08 -0.32 -1.80 -0.32 -7.35 0 -3.97 0.08 -7.22 0.20 -7.22 2.30 -0.15 11.02 -0.25 11.45 -0.15 0.55 0.15 0.60 0.30 0.60 1.50 0 0.77 -0.13 1.45 -0.30 1.60 -0.17 0.13 -2.03 0.25 -4.18 0.28 -2.13 0.03 -3.92 0.10 -4.03 0.15 -0.08 0.05 -0.10 0.55 -0.05 1.10 l0.10 1.02 3.92 0.05 3.90 0.08 0.08 1.48 c0.05 1.02 -0.03 1.55 -0.25 1.67 -0.17 0.13 -1.98 0.22 -4 0.22 l-3.70 0 0 1.10 c0 1.02 0.05 1.10 0.77 1.25 0.43 0.08 2.28 0.15 4.10 0.15 3.83 0 3.95 0.08 3.83 1.92 l-0.08 1.20 -5.88 0.05 c-3.22 0.03 -6.03 -0.03 -6.18 -0.10z m11.93 -1.13 c0 -0.60 -0.10 -1.20 -0.20 -1.38 -0.13 -0.20 -1.35 -0.30 -4.05 -0.35 -2.10 0 -3.97 -0.08 -4.18 -0.15 -0.20 -0.08 -0.32 -0.60 -0.32 -1.48 l0 -1.35 3.70 0 c2.03 0 3.83 -0.10 4 -0.22 0.22 -0.13 0.30 -0.63 0.25 -1.42 l-0.08 -1.23 -3.90 -0.08 -3.90 -0.05 -0.15 -1.20 c-0.08 -0.65 -0.05 -1.25 0.03 -1.35 0.10 -0.10 2 -0.20 4.25 -0.22 3.95 -0.05 4.07 -0.08 4.20 -0.60 0.08 -0.30 0.10 -0.93 0.05 -1.40 l-0.08 -0.85 -5.75 0.05 -5.75 0.05 -0.08 6.95 c-0.05 5.38 0.03 6.95 0.25 7.13 0.17 0.10 2.88 0.20 6.03 0.20 l5.68 0 0 -1.05z"/>
  <path d="M185.98 82.57 c-0.03 -0.10 -0.03 -3.35 -0.03 -7.20 0.03 -7.93 -0.15 -7.32 2.22 -7.35 l1.27 -0.03 0.10 2.45 c0.05 1.33 0.10 4.63 0.08 7.30 l0 4.88 -1.80 0.08 c-1 0.05 -1.83 -0.03 -1.85 -0.13z m3.42 -4.50 c-0.05 -2.45 -0.10 -5.65 -0.13 -7.13 l-0.03 -2.70 -1.05 0 c-2.25 0 -2.08 -0.60 -2.03 7.07 0.03 3.75 0.05 6.88 0.05 7 0.03 0.10 0.75 0.17 1.63 0.17 l1.63 0 -0.08 -4.43z"/>
  <path d="M167.40 81.07 c-0.32 -0.70 -1.15 -1.77 -1.77 -2.42 -0.63 -0.68 -1.13 -1.23 -1.08 -1.25 0.05 -0.05 0.63 -0.45 1.30 -0.90 1.88 -1.25 2.58 -3.28 1.80 -5.07 -0.45 -1.05 -1.95 -2.60 -2.83 -2.97 -0.38 -0.15 -2.60 -0.35 -4.95 -0.45 l-4.25 -0.15 3.67 -0.05 c4.75 -0.08 5.93 0.17 7.25 1.52 1.75 1.80 2.13 3.58 1.23 5.60 -0.40 0.85 -1.50 1.85 -2.72 2.45 -0.03 0.03 0.40 0.55 0.98 1.15 1.02 1.10 2.38 3.40 2.13 3.65 -0.05 0.08 -0.40 -0.43 -0.75 -1.10z"/>
  <path d="M191.02 82.03 c-0.05 -1.15 4.80 -12.98 5.63 -13.70 0.80 -0.73 2.83 -0.80 3.40 -0.13 0.45 0.47 3.17 5.90 4.45 8.80 0.45 1.02 1.15 2.60 1.52 3.47 0.40 0.88 0.73 1.65 0.73 1.75 0 0.40 -1.05 -1.48 -1.52 -2.72 -0.88 -2.30 -4.78 -10.35 -5.30 -10.93 -0.75 -0.85 -2.25 -0.77 -3.13 0.13 -0.63 0.60 -2.28 4.47 -5 11.68 -0.43 1.10 -0.77 1.85 -0.77 1.65z"/>
  <path d="M48.50 77.07 c-0.20 -0.08 -0.80 -0.35 -1.33 -0.60 l-0.95 -0.47 0.15 0.52 c0.17 0.52 0.13 0.55 -0.90 0.38 -1.42 -0.22 -1.70 -0.52 -1.85 -2.03 l-0.13 -1.25 0.28 1.13 c0.32 1.35 0.57 1.65 1.67 1.88 l0.85 0.17 -0.43 -0.85 c-0.25 -0.45 -0.68 -1.08 -0.95 -1.40 -0.28 -0.30 -0.52 -0.80 -0.55 -1.08 -0.03 -0.40 0.15 -0.28 0.90 0.57 0.52 0.60 0.90 1.23 0.85 1.38 -0.05 0.17 -0.03 0.30 0.08 0.28 0.10 -0.05 0.47 0.13 0.82 0.38 0.77 0.52 2.20 0.98 2.50 0.77 0.35 -0.22 -0.70 -2.03 -1.58 -2.70 -0.45 -0.32 -1.50 -1.02 -2.33 -1.55 -0.82 -0.50 -1.33 -0.85 -1.13 -0.80 1.65 0.55 1.65 0.55 0.57 -0.52 -1.10 -1.08 -1.42 -1.80 -1.27 -2.80 0.05 -0.50 0.22 -0.60 0.88 -0.60 l0.80 0 -0.73 -0.75 c-0.85 -0.88 -1.08 -2.38 -0.38 -2.38 0.82 0 2.30 0.82 3.38 1.85 1.83 1.77 4.43 3.30 3 1.77 -0.32 -0.35 -0.70 -0.63 -0.82 -0.63 -0.15 0 -0.90 -0.63 -1.70 -1.38 -0.80 -0.77 -2.08 -1.67 -2.80 -2 -1.42 -0.63 -1.67 -1 -1.67 -2.53 0 -0.43 0.17 -0.93 0.40 -1.10 0.32 -0.30 0.35 -0.25 0.08 0.32 -0.17 0.38 -0.22 1 -0.13 1.55 0.15 0.77 0.32 0.98 1.48 1.48 0.73 0.32 2.05 1.23 2.97 2.05 1.88 1.65 2.75 2.33 3.67 2.80 0.63 0.32 0.63 0.32 -0.22 0.20 l-0.88 -0.13 0.63 0.43 c2.08 1.42 3.25 3.08 3.25 4.55 0 0.57 -0.10 0.75 -0.47 0.75 -0.28 0 -0.57 -0.10 -0.65 -0.25 -0.20 -0.32 -0.63 -0.32 -0.63 0.03 0 0.15 0.35 0.40 0.75 0.55 0.77 0.30 0.98 0.85 0.45 1.38 -0.38 0.38 -1.48 0.38 -2.38 0 -1 -0.43 -2.88 -1.73 -2.72 -1.88 0.05 -0.08 0.60 0.20 1.20 0.63 1.48 1 2.85 1.48 3.38 1.15 0.57 -0.35 0.70 -0.85 0.22 -0.85 -0.20 0 -0.70 -0.30 -1.10 -0.68 -0.40 -0.40 -1.52 -1.38 -2.53 -2.20 -1 -0.82 -2.42 -2.03 -3.17 -2.67 -1.77 -1.58 -2.53 -2.03 -2.97 -1.85 -0.20 0.08 -0.38 0.38 -0.38 0.65 0 0.93 0.68 1.85 2.22 3.08 0.85 0.65 1.48 1.30 1.40 1.42 -0.08 0.13 0 0.30 0.15 0.40 0.20 0.10 0.22 0.08 0.13 -0.10 -0.32 -0.55 0.25 -0.30 0.85 0.32 0.32 0.35 0.50 0.63 0.43 0.63 -0.10 0 0.05 0.45 0.32 1.02 0.75 1.45 0.38 2.03 -1 1.55z m6.25 -3.08 c0 -0.65 -0.93 -2.50 -1.48 -2.95 -0.22 -0.17 -1.48 -1.02 -2.78 -1.90 -1.30 -0.88 -2.70 -1.95 -3.13 -2.40 -0.75 -0.80 -1.52 -1.30 -2.55 -1.60 -0.47 -0.15 -0.57 -0.10 -0.57 0.40 0 0.68 0.80 1.50 3.10 3.22 0.82 0.60 2.75 2.15 4.25 3.42 1.52 1.25 2.85 2.30 2.95 2.30 0.13 0 0.20 -0.22 0.20 -0.50z m-2.63 -0.90 c-1.38 -1.27 -3.95 -3.35 -5.50 -4.47 -0.63 -0.45 -0.40 -0.17 0.60 0.77 0.90 0.80 1.90 1.67 2.25 1.90 0.35 0.22 1.27 0.98 2.03 1.67 0.75 0.70 1.50 1.25 1.63 1.25 0.15 0 -0.30 -0.50 -1 -1.13z m-5.25 -0.35 c-0.25 -0.28 -0.57 -0.50 -0.73 -0.50 -0.15 0 0 0.22 0.35 0.50 0.80 0.63 0.95 0.63 0.38 0z"/>
  <path d="M198.32 76.57 c-0.88 -0.05 -1.58 -0.22 -1.58 -0.35 0 -0.28 1.45 -4.03 1.63 -4.20 0.15 -0.13 2.13 3.97 2.13 4.40 0 0.17 -0.15 0.30 -0.30 0.28 -0.17 -0.03 -1.02 -0.08 -1.88 -0.13z m1.67 -0.68 c-0.13 -0.35 -0.52 -1.20 -0.90 -1.92 l-0.65 -1.33 -0.38 0.88 c-0.20 0.47 -0.52 1.27 -0.70 1.77 l-0.35 0.93 1.55 0.10 c0.85 0.05 1.58 0.10 1.60 0.13 0.03 0.03 -0.05 -0.22 -0.17 -0.55z"/>
  <path d="M76.97 75.30 c-0.63 -0.73 -1.50 -2.03 -1.95 -2.90 -0.45 -0.90 -0.98 -1.67 -1.15 -1.75 -0.40 -0.15 -3.08 -0.50 -7.88 -1.05 -4.95 -0.55 -12.02 -0.85 -12.48 -0.50 -0.28 0.22 -0.32 0.20 -0.22 -0.10 0.10 -0.32 0.68 -0.35 3.60 -0.30 1.90 0.05 5.05 0.25 6.97 0.45 1.92 0.20 4.63 0.47 6 0.63 1.38 0.13 2.95 0.35 3.50 0.47 1.30 0.30 1.75 -0.13 3.55 -3.38 0.77 -1.38 1.88 -3.22 2.45 -4.13 0.57 -0.90 1.17 -2 1.35 -2.47 0.15 -0.47 0.45 -1.08 0.68 -1.30 0.22 -0.25 0.57 -0.77 0.80 -1.20 0.70 -1.25 2.28 -3.50 4.18 -5.90 0.98 -1.23 1.90 -2.70 2.08 -3.25 0.80 -2.78 1.15 -11.82 0.45 -12.75 -0.30 -0.43 -0.70 -0.47 -4.90 -0.40 -2.53 0.03 -4.68 0.10 -4.82 0.20 -0.28 0.17 -0.17 11.25 0.13 11.88 0.20 0.40 0.55 0.43 3.65 0.30 2.92 -0.13 3.50 -0.10 3.92 0.25 0.50 0.40 0.50 0.40 -0.17 1 -0.40 0.35 -0.70 0.73 -0.70 0.88 0 0.13 -0.50 0.80 -1.10 1.52 -0.60 0.70 -1.58 2.20 -2.15 3.33 -0.57 1.13 -1.23 2.17 -1.42 2.35 -0.20 0.15 -0.63 0.82 -0.95 1.50 -0.30 0.65 -1.10 2.05 -1.80 3.08 -0.68 1.02 -1.70 2.83 -2.30 4 -1.45 2.90 -1.88 3.25 -3.97 3.22 -0.93 0 -2.13 -0.10 -2.67 -0.20 l-1 -0.17 0.90 -0.30 c0.90 -0.32 1.38 -0.88 2.70 -3.10 0.45 -0.77 0.75 -0.95 1.80 -1.17 0.68 -0.15 1.52 -0.28 1.85 -0.28 0.63 0 1.60 -1.02 1.65 -1.73 0 -0.30 0.05 -0.30 0.15 -0.08 0.15 0.38 1.17 -1 2.10 -2.78 l0.50 -0.95 -0.57 0.28 c-0.43 0.20 -0.35 0.08 0.25 -0.50 0.88 -0.80 0.95 -1.23 0.13 -0.80 -0.40 0.20 -3.08 0.13 -3.08 -0.10 0 -0.05 0.28 -0.50 0.63 -1 0.35 -0.50 0.63 -1.05 0.63 -1.23 0 -0.85 2.83 -1.88 3.80 -1.35 0.55 0.30 1.15 0.05 1.33 -0.55 0.10 -0.25 0.60 -0.95 1.13 -1.52 0.55 -0.60 1 -1.13 1 -1.20 0 -0.08 -0.65 -0.15 -1.48 -0.20 -1.30 -0.05 -1.55 0.03 -2.40 0.70 -1.75 1.40 -2.05 2.13 -0.80 1.90 0.60 -0.13 0.68 -0.10 0.30 0.08 -0.63 0.30 -1.63 0.35 -1.63 0.10 0 -0.43 0.95 -1.58 1.88 -2.33 0.85 -0.68 1.17 -0.77 2.25 -0.75 1.88 0.08 2.40 -0.05 1 -0.25 l-1.25 -0.20 1.33 0.03 c0.93 0.03 1.42 -0.10 1.75 -0.40 0.38 -0.40 0.38 -0.47 0.05 -0.70 -0.47 -0.32 -6.85 -0.08 -6.95 0.28 -0.05 0.15 -0.17 0.20 -0.28 0.13 -0.10 -0.05 -0.77 0.13 -1.50 0.40 -0.73 0.28 -2.47 0.60 -3.92 0.75 -3.08 0.32 -3.63 0.17 -5.03 -1.38 -0.50 -0.55 -2.17 -2.38 -3.70 -4.03 -3 -3.20 -9.10 -10.15 -10.13 -11.52 -0.55 -0.73 -0.80 -0.82 -2.13 -0.98 -0.82 -0.08 -3.03 -0.13 -4.88 -0.08 l-3.35 0.08 -0.22 1.05 c-0.43 2.25 0.45 3.67 5.57 8.95 7.57 7.78 9.23 9.60 9.90 10.93 0.40 0.77 0.75 0.88 1.50 0.35 0.70 -0.50 5.72 -2.38 7.07 -2.67 1.30 -0.28 2.22 -0.08 1.80 0.35 -0.22 0.22 -0.35 0.22 -0.47 0 -0.13 -0.20 -0.50 -0.22 -1.17 -0.08 -1.20 0.25 -6.40 2.20 -6.72 2.53 -0.13 0.10 0.55 -0.08 1.50 -0.43 0.95 -0.38 2.40 -0.85 3.22 -1.10 0.82 -0.25 1.73 -0.52 2 -0.63 0.40 -0.13 0.43 -0.10 0.10 0.10 -0.20 0.13 -1.60 0.65 -3.10 1.15 -1.52 0.50 -3.08 1.10 -3.50 1.30 -0.40 0.22 -2.15 1.85 -3.88 3.63 -1.73 1.75 -3.25 3.20 -3.38 3.20 -0.15 0 1.25 -1.55 3.13 -3.45 2.78 -2.83 3.25 -3.42 2.70 -3.35 -0.52 0.08 -0.73 -0.05 -1.05 -0.63 -0.70 -1.38 -1.80 -2.60 -9.85 -10.88 -5.22 -5.40 -6.07 -6.80 -5.65 -9.32 l0.22 -1.25 3.63 -0.08 c2 -0.05 4.30 0 5.13 0.08 1.33 0.15 1.58 0.25 2.13 0.98 2.17 2.88 14.02 15.98 15.23 16.80 1.23 0.88 9.15 -0.63 8.55 -1.60 -0.28 -0.43 -0.35 -11.85 -0.08 -12.23 0.13 -0.22 1.58 -0.32 5 -0.38 3.75 -0.05 4.72 -0.15 4.40 -0.38 -0.82 -0.60 -5.75 -0.73 -8.52 -0.17 -0.80 0.15 -0.82 0.13 -0.82 -0.65 0 -1.70 2.15 -3.90 4.70 -4.80 2.78 -0.98 6.80 -0.22 8.68 1.65 1.63 1.65 1.95 2.55 1.83 5.38 -0.08 2.05 -0.20 2.58 -0.80 3.70 -0.88 1.58 -1.25 1.95 -2.53 2.45 -0.98 0.38 -0.93 0.30 0.73 -0.75 0.43 -0.28 1.13 -1.13 1.52 -1.88 0.70 -1.27 0.75 -1.58 0.75 -3.88 0 -2.47 0 -2.53 -0.90 -3.75 -1.48 -2.08 -2.90 -2.80 -5.97 -3.05 -2.08 -0.17 -4.03 0.47 -5.78 1.95 -1.33 1.10 -1.98 2.10 -1.98 3 0 0.45 0.10 0.50 0.57 0.35 1.02 -0.32 5.78 -0.43 7.28 -0.15 2.55 0.47 3.45 1.92 3.35 5.32 -0.03 1.02 -0.08 1.23 -0.13 0.57 -0.20 -2.53 -0.38 -3.60 -0.65 -3.97 -0.22 -0.32 -0.28 0.40 -0.22 3.40 0.05 3.53 -0.22 6.70 -0.90 10.20 -0.15 0.82 -0.65 1.73 -1.83 3.25 -0.90 1.17 -1.98 2.63 -2.40 3.25 -0.43 0.63 -1.15 1.52 -1.60 2 -0.82 0.88 -0.82 0.88 -0.75 3.20 0.05 2.45 -0.17 2.88 -0.85 1.55 -0.22 -0.40 -0.30 -0.75 -0.17 -0.75 0.13 0 0.35 0.25 0.50 0.57 0.22 0.47 0.28 0.35 0.25 -0.82 0 -0.75 -0.08 -1.65 -0.17 -2 -0.17 -0.60 -0.20 -0.57 -0.50 0.38 -0.20 0.55 -0.45 1.13 -0.57 1.30 -0.13 0.17 -0.17 0.40 -0.10 0.52 0.08 0.13 -0.13 0.63 -0.47 1.08 -0.85 1.20 -2.50 4.13 -3.08 5.47 -0.55 1.27 -0.93 1.67 -1.75 1.80 l-0.57 0.08 0.82 1.60 c0.45 0.88 1.33 2.15 1.95 2.83 l1.13 1.25 5.38 -0.20 5.38 -0.17 -0.08 -5.28 c-0.05 -2.90 0.03 -8.30 0.17 -11.98 0.20 -5.78 0.20 -6.82 -0.13 -7.57 -0.20 -0.50 -0.32 -0.98 -0.25 -1.02 0.08 -0.08 0.28 0.17 0.45 0.57 0.22 0.52 0.28 2.10 0.20 5.97 -0.08 2.90 -0.13 8.48 -0.13 12.45 l0 7.18 -1.75 0 c-0.95 0 -3.50 0.08 -5.63 0.17 l-3.90 0.15 -1.13 -1.27z m-0.47 -6.63 c0 -0.17 -0.15 -0.08 -0.30 0.20 -0.15 0.28 -0.40 0.68 -0.55 0.88 -0.15 0.22 -0.03 0.13 0.30 -0.20 0.30 -0.32 0.55 -0.70 0.55 -0.88z m-2.15 -0.47 c0.32 -0.32 1.02 -1.35 1.52 -2.33 l0.90 -1.75 -0.70 -0.08 c-0.38 -0.03 -1.25 0.08 -1.95 0.25 -1.13 0.30 -1.33 0.45 -1.90 1.55 -0.38 0.65 -0.95 1.52 -1.27 1.92 -0.75 0.82 -0.60 0.93 1.35 0.95 1.15 0.03 1.55 -0.08 2.05 -0.52z m9.70 -12.20 c0.45 -0.63 1.48 -2.03 2.33 -3.13 1.63 -2.13 1.98 -2.63 1.80 -2.63 -0.25 0 -4.07 5.13 -5.60 7.50 l-0.38 0.63 0.52 -0.63 c0.30 -0.35 0.90 -1.13 1.33 -1.75z m-3.28 0.82 c0.35 0.10 0.63 -0.17 1.23 -1.27 0.93 -1.70 0.73 -1.92 -1.38 -1.80 -1.02 0.05 -1.85 0.65 -2.25 1.60 -0.20 0.45 -0.55 0.98 -0.77 1.17 -0.40 0.32 -0.32 0.38 0.68 0.47 0.60 0.08 1.30 0.05 1.58 -0.08 0.25 -0.13 0.65 -0.17 0.93 -0.10z"/>
  <path d="M159.50 75.03 c-0.57 -0.15 -0.63 -0.30 -0.75 -1.98 -0.08 -1 -0.10 -1.90 -0.05 -2 0.08 -0.28 4.13 -0.10 4.90 0.20 0.75 0.28 1.17 1.55 0.85 2.55 -0.40 1.15 -2.95 1.77 -4.95 1.23z m3.97 -0.57 c1.08 -0.65 0.98 -2.53 -0.13 -2.95 -0.35 -0.15 -1.48 -0.25 -2.50 -0.25 l-1.88 0 0.08 1.67 c0.08 1.55 0.13 1.70 0.70 1.88 0.88 0.25 3.08 0.05 3.72 -0.35z"/>
  <path d="M43.80 72.25 c0 -0.35 0.05 -0.47 0.13 -0.30 0.05 0.15 0.05 0.45 0 0.63 -0.08 0.15 -0.13 0.03 -0.13 -0.32z"/>
  <path d="M65.63 68.28 l-0.73 -0.15 0.88 -1 c0.50 -0.55 1.02 -1.25 1.20 -1.55 0.15 -0.32 0.60 -0.73 0.98 -0.93 0.70 -0.35 3.80 -0.77 3.80 -0.52 0 0.70 -2.35 3.88 -2.88 3.88 -0.17 0 0.10 -0.43 0.57 -0.93 0.88 -0.95 1.80 -2.28 1.80 -2.63 0 -0.28 -2.28 0.08 -3.05 0.47 -0.38 0.17 -0.82 0.57 -0.98 0.90 -0.15 0.30 -0.63 0.90 -1.02 1.35 l-0.77 0.80 0.85 0.13 c0.47 0.08 1.20 0.17 1.60 0.22 0.45 0.08 0.30 0.10 -0.38 0.10 -0.63 0 -1.45 -0.05 -1.88 -0.15z"/>
  <path d="M58.72 67.75 c-3.95 -0.25 -4.47 -0.40 -4.47 -1.15 0 -0.68 0.73 -1.23 1.95 -1.45 0.45 -0.08 1.20 -0.45 1.67 -0.80 0.75 -0.57 1.02 -0.63 2 -0.50 0.60 0.10 1.17 0.28 1.25 0.40 0.15 0.25 -0.73 2.38 -1.10 2.60 -0.38 0.25 -0.35 0.15 0.22 -0.98 0.68 -1.35 0.65 -1.55 -0.40 -1.73 -1.20 -0.22 -2.53 0.73 -2.67 1.92 l-0.10 0.80 -0.03 -0.80 c-0.03 -0.45 -0.17 -0.82 -0.32 -0.82 -0.17 0 -0.25 0.30 -0.15 0.82 0.13 0.80 0.13 0.80 -0.15 0.13 -0.30 -0.75 -0.68 -0.85 -1.45 -0.45 -0.55 0.30 -0.65 1.13 -0.13 1.33 0.60 0.25 4.85 0.50 5.53 0.32 0.45 -0.13 0.80 -0.52 1.20 -1.33 0.77 -1.67 1.48 -2 3.28 -1.58 0.77 0.17 1.38 0.45 1.35 0.60 -0.05 0.15 -0.43 0.88 -0.82 1.58 l-0.75 1.33 -1.50 -0.05 c-0.82 0 -2.80 -0.10 -4.40 -0.20z m6.43 -1.35 l0.77 -1.33 -1.23 -0.32 c-1.52 -0.38 -2.20 0 -2.90 1.55 -0.55 1.27 -0.43 1.45 1.33 1.42 1.25 0 1.25 0 2.03 -1.33z"/>
  <path d="M51.17 67.07 c-0.68 -0.08 -1.05 -0.28 -1.35 -0.77 -0.90 -1.45 -3.63 -4.50 -4.55 -5.10 -0.40 -0.28 -0.50 -0.45 -0.28 -0.45 0.20 0 0.68 0.25 1.02 0.57 0.60 0.50 3.25 3.55 4.22 4.88 0.28 0.35 0.80 0.55 1.80 0.68 1.33 0.15 1.42 0.13 1.52 -0.43 0.10 -0.50 0.10 -0.50 0.15 0.13 0.03 0.73 -0.08 0.75 -2.55 0.50z"/>
  <path d="M51.13 66.25 c-0.20 -0.35 0.32 -1.95 0.73 -2.17 0.17 -0.13 0.68 -0.70 1.10 -1.33 1.17 -1.70 1.52 -2.10 1.67 -1.98 0.13 0.15 -1.58 2.47 -2.58 3.53 -0.40 0.43 -0.63 0.98 -0.63 1.45 0 0.80 -0.05 0.90 -0.30 0.50z"/>
  <path d="M52.38 65.88 c0.35 -0.32 0.63 -0.82 0.63 -1.08 0 -0.28 0.17 -0.55 0.38 -0.65 0.20 -0.08 0.60 -0.50 0.85 -0.93 0.28 -0.45 1.33 -1.73 2.33 -2.83 5.30 -5.85 6.13 -6.50 8.48 -6.78 0.98 -0.13 1.73 -0.38 2.17 -0.73 1.05 -0.85 2.08 -1.45 2.22 -1.30 0.20 0.17 -0.40 1.65 -0.90 2.25 -0.68 0.77 -1.75 1.17 -2.97 1.13 -0.65 -0.05 -1.45 0.03 -1.80 0.13 -0.52 0.17 -0.57 0.15 -0.30 -0.13 0.22 -0.22 0.82 -0.32 1.83 -0.30 1.20 0.05 1.67 -0.05 2.35 -0.50 0.70 -0.45 1.38 -1.35 1.38 -1.80 0 -0.32 -0.65 -0.05 -1.38 0.60 -0.60 0.52 -1.20 0.75 -2.28 0.90 -0.82 0.10 -1.80 0.35 -2.22 0.57 -0.77 0.40 -4.38 3.75 -4.38 4.07 0 0.10 0.45 0 0.98 -0.20 0.80 -0.32 1.25 -0.35 2.45 -0.13 l1.45 0.28 -1.42 -0.13 c-1.10 -0.10 -1.70 -0.03 -2.58 0.38 -0.63 0.28 -1.13 0.60 -1.13 0.73 0 0.38 2.30 0.55 2.78 0.22 0.25 -0.17 1.08 -0.28 2.05 -0.22 1.33 0.08 1.60 0.15 1.35 0.40 -0.15 0.17 -0.80 1 -1.42 1.85 -1.05 1.48 -1.17 1.55 -2.13 1.55 -0.55 -0.03 -1.33 -0.15 -1.70 -0.32 l-0.70 -0.30 1.02 -0.90 c0.55 -0.50 1 -0.75 1 -0.57 0 0.17 -0.35 0.52 -0.77 0.75 -0.98 0.50 -0.68 0.85 0.82 1.02 1.08 0.10 1.08 0.10 2.22 -1.48 l1.17 -1.58 -1.25 -0.08 c-0.70 -0.05 -1.40 0.05 -1.60 0.22 -0.17 0.15 -0.63 0.20 -0.95 0.13 -0.47 -0.13 -0.73 0 -1.15 0.55 l-0.55 0.68 0.40 -0.68 c0.40 -0.70 0.40 -0.70 -0.22 -0.70 -0.43 0 -0.63 -0.13 -0.63 -0.43 0 -0.57 -2.65 2.10 -3.60 3.63 -0.38 0.60 -0.82 1.13 -1.02 1.23 -0.20 0.08 -0.38 0.32 -0.38 0.55 0 0.57 -0.70 1.52 -1.13 1.52 -0.22 0 -0.15 -0.22 0.25 -0.63z"/>
  <path d="M55.13 64.57 c0.20 -0.45 0.45 -0.82 0.50 -0.82 0.25 0 0.10 0.40 -0.40 1 l-0.50 0.63 0.40 -0.80z"/>
  <path d="M47.13 61.38 c-1.58 -1.58 -3 -3.15 -3.13 -3.50 -0.32 -0.85 -0.32 -1.80 0 -2 0.17 -0.10 0.22 0.05 0.13 0.43 -0.08 0.32 -0.03 0.90 0.10 1.27 0.28 0.68 5.82 6.43 6.22 6.43 0.28 0 1.98 -2.28 2.28 -3.08 0.15 -0.40 0.45 -0.68 0.70 -0.65 0.40 0.03 0.40 0.05 0.03 0.15 -0.22 0.05 -0.47 0.40 -0.57 0.75 -0.15 0.63 -1.45 2.47 -2 2.88 -0.55 0.40 -0.98 0.10 -3.75 -2.67z"/>
  <path d="M64.75 63.75 c-0.20 -0.13 -0.63 -0.25 -0.93 -0.25 -1 0 -0.70 -0.95 0.75 -2.42 l1.35 -1.33 1.73 0 c1.20 0 1.60 0.08 1.35 0.25 -0.20 0.13 -0.30 0.25 -0.20 0.25 0.35 0 -1.08 2.88 -1.63 3.30 -0.60 0.47 -1.85 0.57 -2.42 0.20z m2.20 -0.40 c0.52 -0.38 1.15 -1.55 1.45 -2.78 0.15 -0.55 0.08 -0.57 -1.02 -0.57 -1.13 0 -1.30 0.10 -2.55 1.33 -1.45 1.48 -1.63 1.92 -0.75 1.92 0.30 0 0.73 0.13 0.93 0.25 0.55 0.35 1.33 0.30 1.95 -0.15z"/>
  <path d="M56.67 63.38 c0.60 -0.43 1.83 -0.93 1.83 -0.75 0 0.15 -1.90 1.13 -2.17 1.13 -0.10 0 0.05 -0.17 0.35 -0.38z"/>
  <path d="M69.30 63.30 c-0.73 -0.08 -0.80 -0.15 -0.65 -0.63 0.35 -1.13 1.40 -2.47 2.17 -2.80 0.50 -0.20 1.17 -0.25 1.80 -0.15 0.88 0.15 1 0.22 0.90 0.77 -0.03 0.35 -0.25 0.90 -0.45 1.25 l-0.35 0.63 0.15 -0.63 c0.45 -1.77 0.47 -1.67 -0.45 -1.80 -1.20 -0.13 -2.05 0.28 -2.78 1.38 -0.85 1.23 -0.82 1.67 0.05 1.70 1.27 0.05 2.42 -0.08 2.85 -0.30 0.28 -0.15 0.45 -0.15 0.45 0 0 0.50 -1.83 0.77 -3.70 0.57z"/>
  <path d="M73.57 62.80 c-0.25 -0.15 -0.22 -0.32 0.08 -0.75 0.20 -0.30 0.52 -0.55 0.68 -0.55 0.17 0 0.10 0.13 -0.13 0.28 -0.25 0.13 -0.45 0.43 -0.45 0.60 0 0.45 1.60 0.52 2.60 0.13 0.35 -0.13 0.65 -0.15 0.65 -0.03 0 0.47 -2.80 0.73 -3.42 0.32z"/>
  <path d="M118.15 62 c-3.53 -0.75 -8.15 -2.75 -8.15 -3.53 0 -0.55 2.53 -4.72 3.05 -5.07 0.30 -0.17 0.73 -0.03 1.75 0.68 2.15 1.48 4.65 2.28 7.32 2.28 2.83 0.03 3.90 -0.20 4.88 -1 1.02 -0.88 1 -1.80 -0.05 -2.83 -0.88 -0.88 -2.10 -1.27 -6.97 -2.38 -6.75 -1.55 -9.45 -4.22 -9.18 -9.13 0.15 -2.35 0.77 -3.88 2.28 -5.38 2.33 -2.33 5.18 -3.28 9.80 -3.28 3.72 0 5.50 0.43 9.07 2.20 2.10 1.02 2.10 1.02 1.95 1.88 -0.15 1.02 -2.40 4.65 -2.95 4.75 -0.20 0.05 -0.98 -0.28 -1.70 -0.70 -3.33 -1.98 -7.50 -2.58 -9.75 -1.42 -3.10 1.55 -1.67 3.40 3.45 4.55 6.72 1.50 9.77 2.92 11.38 5.35 1.38 2.08 1.45 5.78 0.15 8.32 -1.15 2.25 -3.78 4.05 -7.03 4.82 -2.17 0.50 -6.53 0.45 -9.30 -0.13z m10.35 -0.47 c3.22 -1.10 5.55 -3.28 6.30 -5.85 0.45 -1.63 0.38 -4.65 -0.17 -5.65 -0.65 -1.30 -2.70 -3.15 -4.22 -3.88 -1.50 -0.70 -4.50 -1.60 -8.20 -2.40 -3.63 -0.80 -5.18 -2.08 -4.43 -3.65 1.20 -2.53 6.78 -2.50 11.45 0.03 0.88 0.47 1.67 0.80 1.77 0.75 0.35 -0.22 2.45 -3.75 2.63 -4.40 0.15 -0.57 0.03 -0.70 -1.92 -1.65 -3.50 -1.73 -5.38 -2.20 -8.82 -2.20 -3.30 0 -4.65 0.28 -6.97 1.45 -5.13 2.53 -6.55 8.80 -2.85 12.50 1.55 1.55 3.60 2.50 7.18 3.33 4.53 1.02 6.10 1.52 6.85 2.25 2.72 2.53 -0.17 4.90 -5.57 4.53 -2.35 -0.15 -5.07 -1.08 -6.90 -2.33 -0.75 -0.50 -1.40 -0.88 -1.45 -0.82 -0.30 0.35 -2.90 4.80 -2.90 4.97 0 0.52 5.25 2.63 8.15 3.25 3.08 0.68 7.78 0.57 10.10 -0.22z"/>
  <path d="M174.10 62.33 l-3.30 -0.10 0.05 -14.68 0.03 -14.68 3.08 -0.08 3.10 -0.08 0.60 0.70 c0.32 0.38 2.03 2.45 3.75 4.57 1.73 2.13 4.68 5.65 6.55 7.80 l3.42 3.90 0.08 -8.40 0.05 -8.43 2.83 0.08 c1.52 0.03 3.08 0.10 3.42 0.15 0.35 0.05 -0.88 0.08 -2.70 0.05 l-3.30 -0.03 0 8.57 c0 7.25 -0.05 8.55 -0.35 8.38 -0.73 -0.43 -11.38 -12.93 -13.48 -15.85 -0.85 -1.20 -1.25 -1.30 -4.35 -1.17 l-2.45 0.08 0 14.43 0 14.43 3.35 0.08 c2.28 0.05 3.38 -0.03 3.45 -0.20 0.05 -0.15 0.08 -4.05 0.03 -8.70 -0.05 -4.63 0 -8.38 0.08 -8.35 0.15 0.08 2.78 3.13 4.47 5.20 0.63 0.75 2.15 2.55 3.38 4 1.25 1.45 3.22 3.85 4.45 5.32 l2.17 2.67 1.33 0 c0.70 0 2.05 0.08 2.97 0.17 l1.70 0.15 0.08 -14.73 0.05 -14.73 0.08 14.85 0.05 14.82 -3.17 -0.17 c-3.20 -0.15 -3.20 -0.17 -3.95 -0.98 -0.70 -0.75 -6.07 -7.15 -9.15 -10.93 -0.77 -0.95 -2.05 -2.42 -2.83 -3.28 l-1.38 -1.58 -0.03 8.27 c0 7.32 -0.05 8.32 -0.40 8.45 -0.22 0.08 -0.40 0.13 -0.43 0.10 -0.03 -0.03 -1.52 -0.10 -3.33 -0.13z"/>
  <path d="M215.70 62.30 l-2.70 -0.08 0 -10.70 c0 -5.90 -0.08 -11.07 -0.15 -11.50 l-0.15 -0.77 -4.70 0 -4.70 0 -0.15 -0.63 c-0.08 -0.32 -0.08 -1.73 0 -3.13 l0.17 -2.50 13.23 0 13.20 0 0 3.13 0 3.13 -4.63 0 -4.63 0 -0.05 11.57 -0.08 11.55 -1 0 c-0.55 0 -2.20 -0.03 -3.67 -0.08z m4.55 -11.68 l0 -11.63 4.63 0 4.63 0 0 -2.88 0 -2.88 -13 0 -13 0 -0.05 1.83 c-0.05 1.83 -0.05 3.05 0.03 3.63 0.03 0.22 1.15 0.30 4.75 0.30 l4.72 0 0.15 0.77 c0.08 0.43 0.15 5.60 0.15 11.50 l0 10.70 3.33 0.10 c1.80 0.03 3.38 0.10 3.50 0.13 0.10 0.03 0.17 -5.18 0.17 -11.57z"/>
  <path d="M49.75 60.70 c-1.02 -1.42 -2.75 -3 -4.63 -4.20 -0.50 -0.32 -0.60 -0.50 -0.32 -0.50 0.38 0 1.15 0.57 3.60 2.63 0.57 0.47 1.38 1.38 1.75 2 0.77 1.23 0.98 1.33 1.20 0.73 0.20 -0.55 -1.75 -2.80 -4.10 -4.68 -2.83 -2.30 -3.28 -2.80 -3.42 -3.88 -0.15 -1.13 0.15 -1.45 0.95 -1.02 1.05 0.55 4.35 3.33 6.28 5.28 1.08 1.05 2.17 2.05 2.47 2.20 0.28 0.17 0.45 0.35 0.40 0.43 -0.25 0.22 -1.13 -0.43 -3.08 -2.35 -2.60 -2.60 -6.40 -5.63 -6.68 -5.35 -0.13 0.13 -0.15 0.57 -0.05 1 0.13 0.60 0.68 1.20 2.08 2.35 1.08 0.85 2.72 2.35 3.67 3.33 0.98 1 1.98 1.85 2.25 1.92 0.30 0.08 0.35 0.13 0.13 0.15 -0.22 0 -0.52 0.38 -0.68 0.77 -0.15 0.43 -0.38 0.75 -0.50 0.75 -0.10 -0.03 -0.70 -0.73 -1.33 -1.55z"/>
  <path d="M140.95 61.97 c-0.43 -0.22 -0.45 -1.20 -0.45 -14.60 l0 -14.38 12.10 0 c9.18 0 12.18 0.08 12.30 0.30 0.10 0.17 0.25 1.50 0.30 2.97 l0.10 2.65 -1.25 0.17 c-0.70 0.10 -4.50 0.15 -8.43 0.15 -3.92 -0.03 -7.25 0.05 -7.38 0.13 -0.15 0.08 -0.25 1.20 -0.25 2.53 l0 2.35 7.63 0 c6.57 0 7.65 0.05 7.78 0.38 0.10 0.20 0.05 1.63 -0.05 3.15 l-0.22 2.78 -7.50 0.03 -7.50 0.05 -0.08 2.70 -0.08 2.72 8.82 -0.10 8.82 -0.08 0 2.75 c-0.03 1.52 -0.10 2.95 -0.20 3.20 -0.15 0.40 -0.95 0.43 -12.10 0.43 -7.65 0 -12.10 -0.10 -12.38 -0.28z m24.25 -0.40 c0.08 -0.25 0.17 -1.58 0.17 -2.95 l0 -2.50 -8.82 0.10 -8.82 0.08 0.08 -2.95 0.08 -2.97 7.57 0 7.55 0 0 -1.25 c0 -0.68 0.08 -2 0.17 -2.92 l0.15 -1.70 -7.80 0 -7.78 0 0 -2.60 c0 -1.63 0.10 -2.67 0.28 -2.80 0.15 -0.08 3.45 -0.15 7.35 -0.13 3.88 0.03 7.65 -0.03 8.38 -0.13 l1.33 -0.17 -0.13 -2.42 c-0.08 -1.33 -0.20 -2.55 -0.30 -2.70 -0.13 -0.22 -3.30 -0.30 -12.05 -0.30 l-11.85 0 0 14.23 c0 11.15 0.08 14.25 0.32 14.35 0.15 0.08 5.63 0.13 12.13 0.15 11.07 0.03 11.82 0 12 -0.40z"/>
  <path d="M74.18 61.08 c-0.28 -0.25 -0.20 -1.08 0.08 -1.08 0.15 0 0.75 -0.50 1.33 -1.13 1 -1.02 1.15 -1.10 2.05 -0.95 1.38 0.20 1.58 0.45 0.93 1.13 -0.28 0.32 -0.63 0.85 -0.77 1.20 -0.13 0.35 -0.25 0.45 -0.25 0.25 -0.03 -0.20 0.20 -0.75 0.47 -1.20 0.28 -0.45 0.50 -0.88 0.50 -0.93 0 -0.08 -0.43 -0.13 -0.93 -0.13 -0.77 0 -1.17 0.22 -2.13 1.13 -0.75 0.73 -1.13 1.27 -1.05 1.50 0.15 0.40 0.05 0.50 -0.22 0.20z"/>
  <path d="M78 60.55 c0 -0.15 0.30 -0.60 0.65 -0.98 l0.65 -0.70 -0.57 0.88 c-0.73 1.15 -0.73 1.13 -0.73 0.80z"/>
  <path d="M67.93 59.10 c-0.08 -0.08 -1.08 -0.30 -2.22 -0.47 -1.15 -0.17 -1.77 -0.32 -1.38 -0.35 0.43 -0.03 0.68 -0.17 0.68 -0.43 0 -0.43 1.45 -2 1.65 -1.77 0.08 0.05 -0.22 0.45 -0.65 0.88 -1 1.02 -0.98 1.33 0.13 1.02 0.47 -0.15 2.03 -0.22 3.45 -0.20 3.53 0.08 5.45 -0.15 5.72 -0.63 0.13 -0.22 0.47 -0.38 0.77 -0.38 0.40 0.03 0.45 0.05 0.13 0.15 -0.22 0.05 -0.68 0.50 -0.95 0.98 -0.77 1.23 -1.13 1.35 -3.22 1.08 -1.17 -0.13 -1.98 -0.13 -2.28 0.03 -0.52 0.28 -1.58 0.32 -1.83 0.10z m1.65 -0.38 c0.40 -0.17 1.13 -0.17 2.30 -0.03 1.40 0.20 1.88 0.17 2.33 -0.10 1 -0.65 0.68 -0.95 -0.75 -0.70 -0.73 0.13 -2.53 0.17 -3.97 0.15 -1.45 -0.05 -2.90 0.05 -3.25 0.17 -0.60 0.25 -0.60 0.25 0.15 0.28 0.43 0.03 0.98 0.13 1.25 0.25 0.70 0.30 1.25 0.30 1.95 -0.03z"/>
  <path d="M52.75 57.72 c-1.08 -0.65 -7 -6.20 -8.05 -7.55 -0.65 -0.80 -0.77 -1.17 -0.73 -2.10 0.05 -1.45 0.17 -1.65 0.85 -1.30 0.57 0.30 5.10 4.07 5.57 4.65 0.15 0.17 1 0.90 1.88 1.60 l1.60 1.27 0.25 -2.22 c0.40 -3.28 0.22 -4 -1.55 -6.13 -0.82 -1 -2.90 -3.13 -4.60 -4.70 -1.70 -1.58 -3.13 -3.03 -3.17 -3.17 -0.20 -0.77 7.82 7.10 9.02 8.85 0.65 0.95 0.70 1.20 0.65 3 -0.03 1.08 -0.05 3.33 -0.03 5.03 0.03 1.67 -0.05 3.05 -0.15 3.05 -0.10 0 -0.15 -0.47 -0.10 -1.05 0.13 -1.55 -0.10 -1.92 -2.17 -3.72 -1.02 -0.88 -2.90 -2.47 -4.13 -3.55 -1.25 -1.08 -2.58 -2.17 -2.92 -2.45 l-0.68 -0.47 -0.10 1.02 c-0.08 0.88 0.05 1.23 0.70 2.08 1.10 1.42 7.65 7.55 8.30 7.75 0.30 0.10 0.55 0.30 0.55 0.43 0 0.30 0 0.30 -1 -0.30z"/>
  <path d="M60.50 57.35 c0 -0.30 2.20 -2.28 2.33 -2.08 0.03 0.05 -0.47 0.63 -1.13 1.25 -0.68 0.65 -1.20 1.02 -1.20 0.82z"/>
  <path d="M63 56.85 c0.20 -0.20 0.80 -0.65 1.38 -0.98 0.82 -0.50 1.17 -0.57 1.75 -0.40 l0.75 0.22 -0.90 0.03 c-0.57 0.03 -1.27 0.30 -1.92 0.77 -1.15 0.82 -1.52 0.95 -1.05 0.35z"/>
  <path d="M67.68 57.08 c-0.30 -0.28 -0.20 -0.52 0.57 -1.42 0.77 -0.88 2.08 -1.33 3 -1.02 0.68 0.22 0.63 0.68 -0.17 1.40 l-0.68 0.60 0.57 -0.73 c0.45 -0.63 0.47 -0.77 0.17 -0.95 -0.63 -0.35 -1.83 0.08 -2.67 0.95 -0.70 0.73 -0.75 0.85 -0.38 1 0.22 0.10 0.88 0.10 1.40 0.03 0.57 -0.08 0.95 -0.03 0.85 0.10 -0.15 0.25 -2.42 0.30 -2.67 0.05z"/>
  <path d="M73.07 57.08 c-0.70 -0.10 -0.82 -0.20 -0.82 -0.77 0 -1.35 0.70 -1.67 3.58 -1.77 1.63 -0.05 1.70 -0.03 1.45 0.45 -0.15 0.28 -0.40 0.57 -0.55 0.68 -0.17 0.10 -0.17 -0.05 0.03 -0.40 l0.30 -0.57 -1.83 0.17 c-2.17 0.22 -2.72 0.47 -2.72 1.25 0 0.50 0.17 0.63 1.33 0.82 1.27 0.25 0.82 0.35 -0.75 0.15z"/>
  <path d="M71 53.90 c-0.68 -0.22 -0.85 -0.40 -0.80 -0.77 0.15 -0.77 0.98 -1.77 1.73 -2.08 1.23 -0.50 3.65 -0.82 3.92 -0.55 0.28 0.28 0.32 0.28 -1.65 0.38 -1.63 0.08 -2.80 0.65 -3.40 1.70 -0.38 0.60 -0.38 0.73 -0.05 0.93 0.85 0.55 1.48 0.28 2.50 -1.13 0.55 -0.75 1.13 -1.38 1.25 -1.38 0.30 0 -1.88 2.90 -2.30 3.08 -0.20 0.05 -0.73 -0.03 -1.20 -0.17z"/>
  <path d="M74 53.85 c0 -0.38 0.80 -1.42 1.55 -2.05 0.40 -0.32 0.70 -0.73 0.70 -0.90 0 -0.15 0.75 -0.68 1.67 -1.13 0.93 -0.45 1.55 -0.65 1.38 -0.47 -0.15 0.20 -0.85 0.63 -1.55 0.95 -0.68 0.32 -1.30 0.77 -1.38 1.02 -0.10 0.25 -0.40 0.68 -0.70 0.93 -0.30 0.22 -0.77 0.70 -1.05 1.02 l-0.50 0.60 1.30 -0.15 c1.75 -0.20 2.78 -0.77 2.97 -1.63 0.28 -1.30 0.38 -1.55 0.75 -1.92 0.22 -0.20 0.50 -0.38 0.68 -0.38 0.15 0 0.05 0.15 -0.20 0.35 -0.28 0.20 -0.65 0.88 -0.88 1.55 -0.20 0.65 -0.65 1.38 -1 1.65 -0.68 0.47 -3.75 0.93 -3.75 0.55z"/>
  <path d="M52 52.28 c-0.77 -0.77 -2.53 -2.47 -3.90 -3.78 -1.40 -1.30 -2.88 -2.88 -3.33 -3.47 -0.77 -1.08 -0.77 -1.15 -0.77 -4 0 -1.60 0.10 -3.03 0.20 -3.20 0.10 -0.15 0.13 1.08 0.08 2.70 -0.08 2.85 -0.05 3.05 0.55 3.95 0.80 1.20 2.90 3.35 6 6.13 2.17 1.98 3.28 3.22 2.75 3.13 -0.10 -0.03 -0.82 -0.68 -1.58 -1.45z"/>
  <path d="M83 51.75 c0.20 -0.13 0.55 -0.25 0.75 -0.25 0.32 0 0.32 0.03 0 0.25 -0.20 0.13 -0.55 0.25 -0.75 0.25 -0.32 0 -0.32 -0.03 0 -0.25z"/>
  <path d="M80.38 49.65 c0.52 -0.25 2.90 -0.57 2.70 -0.38 -0.10 0.10 -0.82 0.25 -1.58 0.32 -0.75 0.10 -1.25 0.10 -1.13 0.05z"/>
  <path d="M91.38 46.60 c-1.23 -1.77 -1.30 -2.35 -0.22 -2.35 0.82 0 2.60 1.70 2.60 2.47 0 0.75 -0.45 1.52 -0.88 1.52 -0.17 0 -0.85 -0.75 -1.50 -1.65z m2.13 0.35 c0 -0.68 -1.80 -2.45 -2.47 -2.45 -0.28 0 -0.52 0.05 -0.52 0.13 0 0.13 1.50 2.35 2.08 3.08 0.32 0.40 0.93 -0.08 0.93 -0.75z"/>
  <path d="M96.45 44.65 c-1.85 -0.68 -3.55 -2.63 -2.70 -3.15 0.80 -0.50 4.30 1.05 4.80 2.15 0.57 1.25 -0.25 1.65 -2.10 1z m1.92 -0.15 c0.30 -0.47 -0.52 -1.38 -1.90 -2.08 -1.27 -0.63 -2.72 -0.90 -2.72 -0.47 0.03 0.55 1.77 2.03 2.90 2.42 1.20 0.43 1.52 0.45 1.73 0.13z"/>
  <path d="M96.70 38.70 c-1.20 -0.25 -1.20 -0.28 -1.20 -1.25 l0 -1 1.95 0.17 c2.33 0.20 3.05 0.60 3.05 1.63 0 0.75 -0.03 0.75 -1.30 0.73 -0.73 -0.03 -1.85 -0.15 -2.50 -0.28z m3.55 -0.30 c0 -1.10 -0.22 -1.20 -3.17 -1.52 l-1.33 -0.15 0 0.75 c0 0.65 0.10 0.75 1.20 0.98 1.85 0.38 3.30 0.35 3.30 -0.05z"/>
  <path d="M74.25 34.53 c-0.73 -0.13 -0.90 -0.28 -0.95 -0.82 -0.08 -0.68 -0.05 -0.70 1.25 -0.70 0.73 0 1.75 0.13 2.28 0.28 0.75 0.20 0.93 0.38 0.93 0.85 0 0.60 -0.08 0.63 -1.30 0.60 -0.73 -0.03 -1.73 -0.10 -2.20 -0.20z m3.25 -0.40 c0 -0.43 -1.48 -0.88 -2.95 -0.88 -0.90 0 -1.08 0.08 -1 0.45 0.13 0.73 3.95 1.15 3.95 0.43z"/>
  <path d="M95.55 33.97 c-0.43 -0.15 -0.55 -0.38 -0.50 -0.77 0.10 -0.70 1.58 -1.15 3.90 -1.17 l1.58 -0.03 -0.08 0.80 c-0.05 0.57 -0.28 0.90 -0.70 1.13 -0.73 0.38 -3.35 0.40 -4.20 0.05z m3.95 -0.30 c0.35 -0.17 0.65 -0.57 0.70 -0.88 0.08 -0.50 -0.03 -0.55 -1.02 -0.55 -1.70 0 -3.92 0.52 -3.92 0.93 0 0.77 3.03 1.13 4.25 0.50z"/>
  <path d="M76.38 29.98 c-1.15 -1.05 -1.52 -2.22 -0.75 -2.22 1.23 0 3.88 1.90 3.88 2.78 0 0.40 -0.17 0.47 -1 0.47 -0.82 0 -1.20 -0.17 -2.13 -1.02z m2.88 0.55 c0 -0.55 -2.83 -2.53 -3.63 -2.53 -0.45 0 0.03 0.82 1 1.73 0.80 0.73 1.33 1.02 1.88 1.02 0.40 0 0.75 -0.10 0.75 -0.22z"/>
  <path d="M93.15 30.27 c-0.10 -0.13 0.25 -0.17 0.77 -0.10 0.80 0.10 1.13 0 1.92 -0.65 1.02 -0.80 2.30 -2.47 2.08 -2.67 -0.20 -0.22 -2 0.80 -3.38 1.90 -0.73 0.55 -1.30 0.90 -1.30 0.77 0 -0.52 3.78 -3.03 4.63 -3.03 0.95 0 -0.10 1.92 -1.75 3.25 -0.95 0.75 -2.65 1.05 -2.97 0.52z"/>
  <path d="M80.75 28.20 c-1.02 -0.68 -2 -2.45 -2 -3.63 0 -0.90 0.08 -0.95 1.20 -0.55 0.55 0.20 1.05 0.73 1.80 1.98 0.57 0.95 1 1.92 0.95 2.17 -0.13 0.68 -0.98 0.68 -1.95 0.03z m1.63 0.05 c0.10 -0.15 -0.30 -1.05 -0.85 -1.98 -0.73 -1.25 -1.23 -1.80 -1.77 -1.98 -0.68 -0.25 -0.75 -0.22 -0.75 0.28 0.03 1.85 2.70 4.78 3.38 3.67z"/>
  <path d="M89.20 27.80 c-0.93 -0.10 -0.88 -0.45 0.25 -2.20 1.20 -1.80 1.67 -2.22 2.80 -2.45 0.63 -0.10 0.77 -0.08 0.50 0.10 -0.20 0.13 -0.57 0.25 -0.80 0.25 -0.47 0 -1.83 1.50 -2.65 2.97 l-0.57 1.02 0.98 0 c1.13 0 1.58 -0.43 2.78 -2.55 1.30 -2.33 1.30 -1.80 -0.03 0.68 -0.98 1.88 -1.70 2.38 -3.25 2.17z"/>
  <path d="M84.95 26.45 c-0.38 -0.70 -0.40 -4.35 0 -4.75 0.40 -0.40 1.48 -0.03 1.65 0.60 0.22 0.93 0.17 2.70 -0.15 3.72 -0.32 1.13 -1 1.30 -1.50 0.43z m1.25 -0.68 c0.57 -1.90 0.22 -4.15 -0.63 -3.97 -0.80 0.15 -0.98 3.20 -0.28 4.53 0.35 0.65 0.60 0.52 0.90 -0.55z"/>
 </g>
<g>
   <text fill="#ffffff" font-family="Arial" x="60.14752%" y="41.43834%" text-anchor="middle" dominant-baseline="central" font-size="47.324352">SENT</text>
   <text fill="#ffffff" font-family="Arial" x="56.216637%" y="65.9769%" text-anchor="middle" dominant-baseline="central" font-size="21.89834">ENERGIA</text>
</g>
</svg>